<svg width="190" height="51" viewBox="0 0 190 51" fill="none" xmlns="http://www.w3.org/2000/svg">
<rect y="0.5" width="190" height="50" rx="5" fill="#00730C"/>
<path d="M37.61 31.5C36.794 31.5 36.386 31.092 36.386 30.276V20.034C36.386 19.218 36.794 18.81 37.61 18.81H41.102C43.226 18.81 44.864 19.356 46.016 20.448C47.18 21.54 47.762 23.106 47.762 25.146C47.762 27.174 47.18 28.74 46.016 29.844C44.864 30.948 43.226 31.5 41.102 31.5H37.61ZM38.69 29.592H40.958C43.886 29.592 45.35 28.11 45.35 25.146C45.35 22.194 43.886 20.718 40.958 20.718H38.69V29.592ZM50.9969 20.898C50.5769 20.898 50.2469 20.796 50.0069 20.592C49.7789 20.376 49.6649 20.082 49.6649 19.71C49.6649 19.326 49.7789 19.032 50.0069 18.828C50.2469 18.624 50.5769 18.522 50.9969 18.522C51.8849 18.522 52.3289 18.918 52.3289 19.71C52.3289 20.502 51.8849 20.898 50.9969 20.898ZM50.9969 31.626C50.6369 31.626 50.3609 31.518 50.1689 31.302C49.9769 31.086 49.8809 30.786 49.8809 30.402V23.796C49.8809 22.98 50.2529 22.572 50.9969 22.572C51.7529 22.572 52.1309 22.98 52.1309 23.796V30.402C52.1309 30.786 52.0349 31.086 51.8429 31.302C51.6509 31.518 51.3689 31.626 50.9969 31.626ZM57.6908 31.68C57.1748 31.68 56.6288 31.626 56.0528 31.518C55.4768 31.41 54.9608 31.224 54.5048 30.96C54.2528 30.816 54.0968 30.642 54.0368 30.438C53.9768 30.222 53.9828 30.024 54.0548 29.844C54.1388 29.652 54.2708 29.514 54.4508 29.43C54.6428 29.346 54.8648 29.364 55.1168 29.484C55.5968 29.712 56.0468 29.874 56.4668 29.97C56.8868 30.054 57.3008 30.096 57.7088 30.096C58.2848 30.096 58.7108 30 58.9868 29.808C59.2748 29.604 59.4188 29.34 59.4188 29.016C59.4188 28.512 59.0468 28.188 58.3028 28.044L56.5028 27.702C54.9788 27.414 54.2168 26.622 54.2168 25.326C54.2168 24.75 54.3728 24.252 54.6848 23.832C55.0088 23.412 55.4528 23.088 56.0168 22.86C56.5808 22.632 57.2288 22.518 57.9608 22.518C59.0168 22.518 59.9588 22.752 60.7868 23.22C61.0148 23.34 61.1468 23.508 61.1828 23.724C61.2308 23.928 61.2068 24.126 61.1108 24.318C61.0268 24.498 60.8888 24.63 60.6968 24.714C60.5048 24.786 60.2828 24.762 60.0308 24.642C59.6588 24.45 59.2988 24.312 58.9508 24.228C58.6148 24.144 58.2908 24.102 57.9788 24.102C57.3908 24.102 56.9528 24.204 56.6648 24.408C56.3888 24.612 56.2508 24.882 56.2508 25.218C56.2508 25.746 56.5928 26.07 57.2768 26.19L59.0768 26.532C59.8568 26.676 60.4448 26.94 60.8408 27.324C61.2488 27.708 61.4528 28.224 61.4528 28.872C61.4528 29.748 61.1108 30.438 60.4268 30.942C59.7428 31.434 58.8308 31.68 57.6908 31.68ZM67.3259 31.68C66.4019 31.68 65.5979 31.494 64.9139 31.122C64.2299 30.738 63.7019 30.198 63.3299 29.502C62.9579 28.806 62.7719 27.99 62.7719 27.054C62.7719 26.118 62.9579 25.314 63.3299 24.642C63.7019 23.958 64.2299 23.436 64.9139 23.076C65.5979 22.704 66.4019 22.518 67.3259 22.518C67.7219 22.518 68.1479 22.572 68.6039 22.68C69.0719 22.788 69.5099 22.968 69.9179 23.22C70.1579 23.364 70.2959 23.55 70.3319 23.778C70.3799 24.006 70.3499 24.216 70.2419 24.408C70.1459 24.6 69.9959 24.738 69.7919 24.822C69.5999 24.906 69.3779 24.876 69.1259 24.732C68.5739 24.42 68.0399 24.264 67.5239 24.264C66.7439 24.264 66.1379 24.51 65.7059 25.002C65.2859 25.482 65.0759 26.172 65.0759 27.072C65.0759 27.96 65.2859 28.662 65.7059 29.178C66.1379 29.682 66.7439 29.934 67.5239 29.934C68.0399 29.934 68.5739 29.784 69.1259 29.484C69.3779 29.34 69.5999 29.31 69.7919 29.394C69.9839 29.478 70.1219 29.622 70.2059 29.826C70.2899 30.018 70.3079 30.228 70.2599 30.456C70.2119 30.672 70.0739 30.852 69.8459 30.996C69.4499 31.236 69.0299 31.41 68.5859 31.518C68.1419 31.626 67.7219 31.68 67.3259 31.68ZM75.5863 31.68C74.6743 31.68 73.8823 31.494 73.2103 31.122C72.5383 30.75 72.0163 30.222 71.6443 29.538C71.2723 28.842 71.0863 28.026 71.0863 27.09C71.0863 26.154 71.2723 25.344 71.6443 24.66C72.0163 23.976 72.5383 23.448 73.2103 23.076C73.8823 22.704 74.6743 22.518 75.5863 22.518C76.4983 22.518 77.2903 22.704 77.9623 23.076C78.6343 23.448 79.1563 23.976 79.5283 24.66C79.9003 25.344 80.0863 26.154 80.0863 27.09C80.0863 28.026 79.9003 28.842 79.5283 29.538C79.1563 30.222 78.6343 30.75 77.9623 31.122C77.2903 31.494 76.4983 31.68 75.5863 31.68ZM75.5863 29.97C76.2583 29.97 76.7983 29.73 77.2063 29.25C77.6143 28.758 77.8183 28.038 77.8183 27.09C77.8183 26.13 77.6143 25.416 77.2063 24.948C76.7983 24.468 76.2583 24.228 75.5863 24.228C74.9143 24.228 74.3743 24.468 73.9663 24.948C73.5583 25.416 73.3543 26.13 73.3543 27.09C73.3543 28.038 73.5583 28.758 73.9663 29.25C74.3743 29.73 74.9143 29.97 75.5863 29.97ZM85.3317 31.644C84.7317 31.644 84.2877 31.326 83.9997 30.69L81.1377 24.048C80.9697 23.652 80.9637 23.304 81.1197 23.004C81.2877 22.704 81.6177 22.554 82.1097 22.554C82.3857 22.554 82.6077 22.62 82.7757 22.752C82.9437 22.872 83.0937 23.106 83.2257 23.454L85.3857 28.854L87.6177 23.436C87.7497 23.1 87.8997 22.872 88.0677 22.752C88.2477 22.62 88.4877 22.554 88.7877 22.554C89.1717 22.554 89.4417 22.704 89.5977 23.004C89.7537 23.304 89.7477 23.646 89.5797 24.03L86.6637 30.69C86.3997 31.326 85.9557 31.644 85.3317 31.644ZM95.4221 31.68C94.4261 31.68 93.5681 31.494 92.8481 31.122C92.1281 30.75 91.5701 30.222 91.1741 29.538C90.7901 28.854 90.5981 28.044 90.5981 27.108C90.5981 26.196 90.7841 25.398 91.1561 24.714C91.5401 24.03 92.0621 23.496 92.7221 23.112C93.3941 22.716 94.1561 22.518 95.0081 22.518C96.2561 22.518 97.2401 22.914 97.9601 23.706C98.6921 24.498 99.0581 25.578 99.0581 26.946C99.0581 27.39 98.7701 27.612 98.1941 27.612H92.7581C92.9261 29.184 93.8261 29.97 95.4581 29.97C95.7701 29.97 96.1181 29.934 96.5021 29.862C96.8981 29.778 97.2701 29.64 97.6181 29.448C97.9301 29.268 98.1941 29.214 98.4101 29.286C98.6261 29.346 98.7761 29.472 98.8601 29.664C98.9561 29.856 98.9681 30.072 98.8961 30.312C98.8361 30.54 98.6681 30.738 98.3921 30.906C97.9721 31.17 97.4861 31.368 96.9341 31.5C96.3941 31.62 95.8901 31.68 95.4221 31.68ZM95.0981 24.048C94.4381 24.048 93.9041 24.252 93.4961 24.66C93.0881 25.068 92.8421 25.62 92.7581 26.316H97.1861C97.1381 25.584 96.9341 25.026 96.5741 24.642C96.2261 24.246 95.7341 24.048 95.0981 24.048ZM101.992 31.644C101.224 31.644 100.84 31.26 100.84 30.492V23.688C100.84 22.932 101.206 22.554 101.938 22.554C102.67 22.554 103.036 22.932 103.036 23.688V24.246C103.468 23.214 104.392 22.638 105.808 22.518C106.324 22.458 106.612 22.752 106.672 23.4C106.732 24.036 106.42 24.39 105.736 24.462L105.34 24.498C103.864 24.642 103.126 25.398 103.126 26.766V30.492C103.126 31.26 102.748 31.644 101.992 31.644ZM114.071 31.644C113.375 31.644 113.027 31.284 113.027 30.564V19.746C113.027 19.026 113.387 18.666 114.107 18.666C114.407 18.666 114.641 18.726 114.809 18.846C114.989 18.954 115.151 19.146 115.295 19.422L119.453 27.108L123.611 19.422C123.755 19.146 123.911 18.954 124.079 18.846C124.247 18.726 124.481 18.666 124.781 18.666C125.477 18.666 125.825 19.026 125.825 19.746V30.564C125.825 31.284 125.477 31.644 124.781 31.644C124.085 31.644 123.737 31.284 123.737 30.564V22.95L120.353 29.124C120.233 29.328 120.107 29.478 119.975 29.574C119.843 29.67 119.663 29.718 119.435 29.718C119.207 29.718 119.021 29.67 118.877 29.574C118.733 29.466 118.607 29.316 118.499 29.124L115.115 22.986V30.564C115.115 31.284 114.767 31.644 114.071 31.644ZM132.416 31.68C131.504 31.68 130.712 31.494 130.04 31.122C129.368 30.75 128.846 30.222 128.474 29.538C128.102 28.842 127.916 28.026 127.916 27.09C127.916 26.154 128.102 25.344 128.474 24.66C128.846 23.976 129.368 23.448 130.04 23.076C130.712 22.704 131.504 22.518 132.416 22.518C133.328 22.518 134.12 22.704 134.792 23.076C135.464 23.448 135.986 23.976 136.358 24.66C136.73 25.344 136.916 26.154 136.916 27.09C136.916 28.026 136.73 28.842 136.358 29.538C135.986 30.222 135.464 30.75 134.792 31.122C134.12 31.494 133.328 31.68 132.416 31.68ZM132.416 29.97C133.088 29.97 133.628 29.73 134.036 29.25C134.444 28.758 134.648 28.038 134.648 27.09C134.648 26.13 134.444 25.416 134.036 24.948C133.628 24.468 133.088 24.228 132.416 24.228C131.744 24.228 131.204 24.468 130.796 24.948C130.388 25.416 130.184 26.13 130.184 27.09C130.184 28.038 130.388 28.758 130.796 29.25C131.204 29.73 131.744 29.97 132.416 29.97ZM139.926 31.644C139.158 31.644 138.774 31.26 138.774 30.492V23.688C138.774 22.932 139.14 22.554 139.872 22.554C140.604 22.554 140.97 22.932 140.97 23.688V24.246C141.402 23.214 142.326 22.638 143.742 22.518C144.258 22.458 144.546 22.752 144.606 23.4C144.666 24.036 144.354 24.39 143.67 24.462L143.274 24.498C141.798 24.642 141.06 25.398 141.06 26.766V30.492C141.06 31.26 140.682 31.644 139.926 31.644ZM150.02 31.68C149.024 31.68 148.166 31.494 147.446 31.122C146.726 30.75 146.168 30.222 145.772 29.538C145.388 28.854 145.196 28.044 145.196 27.108C145.196 26.196 145.382 25.398 145.754 24.714C146.138 24.03 146.66 23.496 147.32 23.112C147.992 22.716 148.754 22.518 149.606 22.518C150.854 22.518 151.838 22.914 152.558 23.706C153.29 24.498 153.656 25.578 153.656 26.946C153.656 27.39 153.368 27.612 152.792 27.612H147.356C147.524 29.184 148.424 29.97 150.056 29.97C150.368 29.97 150.716 29.934 151.1 29.862C151.496 29.778 151.868 29.64 152.216 29.448C152.528 29.268 152.792 29.214 153.008 29.286C153.224 29.346 153.374 29.472 153.458 29.664C153.554 29.856 153.566 30.072 153.494 30.312C153.434 30.54 153.266 30.738 152.99 30.906C152.57 31.17 152.084 31.368 151.532 31.5C150.992 31.62 150.488 31.68 150.02 31.68ZM149.696 24.048C149.036 24.048 148.502 24.252 148.094 24.66C147.686 25.068 147.44 25.62 147.356 26.316H151.784C151.736 25.584 151.532 25.026 151.172 24.642C150.824 24.246 150.332 24.048 149.696 24.048Z" fill="white"/>
</svg>
