<svg width="375" height="32" viewBox="0 0 375 32" fill="none" xmlns="http://www.w3.org/2000/svg">
<rect x="86" width="133" height="32" rx="16" fill="url(#paint0_linear_673_27185)"/>
<path d="M99.672 20.12C99.248 20.12 98.816 20.064 98.376 19.952C97.936 19.84 97.532 19.668 97.164 19.436C96.972 19.316 96.856 19.172 96.816 19.004C96.784 18.828 96.808 18.668 96.888 18.524C96.968 18.372 97.084 18.272 97.236 18.224C97.396 18.168 97.576 18.196 97.776 18.308C98.072 18.476 98.372 18.604 98.676 18.692C98.98 18.78 99.304 18.824 99.648 18.824C100.152 18.824 100.544 18.696 100.824 18.44C101.112 18.176 101.256 17.824 101.256 17.384C101.256 16.936 101.12 16.576 100.848 16.304C100.576 16.024 100.204 15.884 99.732 15.884C99.476 15.884 99.228 15.928 98.988 16.016C98.748 16.096 98.512 16.24 98.28 16.448C98.208 16.512 98.116 16.576 98.004 16.64C97.892 16.696 97.772 16.724 97.644 16.724C97.236 16.724 97.032 16.528 97.032 16.136V12.212C97.032 11.764 97.256 11.54 97.704 11.54H101.652C102.1 11.54 102.324 11.752 102.324 12.176C102.324 12.6 102.1 12.812 101.652 12.812H98.532V15.104C98.956 14.784 99.476 14.624 100.092 14.624C100.628 14.624 101.092 14.74 101.484 14.972C101.884 15.196 102.192 15.512 102.408 15.92C102.632 16.32 102.744 16.788 102.744 17.324C102.744 17.876 102.62 18.364 102.372 18.788C102.124 19.204 101.768 19.532 101.304 19.772C100.848 20.004 100.304 20.12 99.672 20.12ZM106.795 20.12C105.795 20.12 105.031 19.744 104.503 18.992C103.975 18.232 103.711 17.152 103.711 15.752C103.711 14.336 103.975 13.26 104.503 12.524C105.031 11.788 105.795 11.42 106.795 11.42C107.803 11.42 108.567 11.788 109.087 12.524C109.615 13.26 109.879 14.332 109.879 15.74C109.879 17.148 109.615 18.232 109.087 18.992C108.559 19.744 107.795 20.12 106.795 20.12ZM106.795 18.86C107.339 18.86 107.739 18.608 107.995 18.104C108.259 17.6 108.391 16.812 108.391 15.74C108.391 14.668 108.259 13.892 107.995 13.412C107.739 12.924 107.339 12.68 106.795 12.68C106.259 12.68 105.859 12.924 105.595 13.412C105.331 13.892 105.199 14.668 105.199 15.74C105.199 16.812 105.331 17.6 105.595 18.104C105.859 18.608 106.259 18.86 106.795 18.86ZM113.991 20.12C112.991 20.12 112.227 19.744 111.699 18.992C111.171 18.232 110.907 17.152 110.907 15.752C110.907 14.336 111.171 13.26 111.699 12.524C112.227 11.788 112.991 11.42 113.991 11.42C114.999 11.42 115.763 11.788 116.283 12.524C116.811 13.26 117.075 14.332 117.075 15.74C117.075 17.148 116.811 18.232 116.283 18.992C115.755 19.744 114.991 20.12 113.991 20.12ZM113.991 18.86C114.535 18.86 114.935 18.608 115.191 18.104C115.455 17.6 115.587 16.812 115.587 15.74C115.587 14.668 115.455 13.892 115.191 13.412C114.935 12.924 114.535 12.68 113.991 12.68C113.455 12.68 113.055 12.924 112.791 13.412C112.527 13.892 112.395 14.668 112.395 15.74C112.395 16.812 112.527 17.6 112.791 18.104C113.055 18.608 113.455 18.86 113.991 18.86ZM121.186 19.616C120.818 19.616 120.634 19.428 120.634 19.052V17.084H118.702C118.342 17.084 118.162 16.908 118.162 16.556C118.162 16.204 118.342 16.028 118.702 16.028H120.634V14.12C120.634 13.752 120.818 13.568 121.186 13.568C121.554 13.568 121.738 13.752 121.738 14.12V16.028H123.67C124.03 16.028 124.21 16.204 124.21 16.556C124.21 16.908 124.03 17.084 123.67 17.084H121.738V19.052C121.738 19.428 121.554 19.616 121.186 19.616Z" fill="#212529"/>
<path d="M134.28 19.07C134.007 19.07 133.87 18.9267 133.87 18.64V12.31C133.87 12.0233 134.007 11.88 134.28 11.88C134.553 11.88 134.69 12.0233 134.69 12.31V15.07H138.92V12.31C138.92 12.0233 139.057 11.88 139.33 11.88C139.603 11.88 139.74 12.0233 139.74 12.31V18.64C139.74 18.9267 139.603 19.07 139.33 19.07C139.057 19.07 138.92 18.9267 138.92 18.64V15.78H134.69V18.64C134.69 18.9267 134.553 19.07 134.28 19.07ZM142.897 19.09C142.564 19.09 142.264 19.0267 141.997 18.9C141.737 18.7667 141.531 18.5867 141.377 18.36C141.224 18.1333 141.147 17.88 141.147 17.6C141.147 17.2467 141.237 16.9667 141.417 16.76C141.604 16.5533 141.907 16.4067 142.327 16.32C142.754 16.2267 143.334 16.18 144.067 16.18H144.387V15.87C144.387 15.4567 144.301 15.16 144.127 14.98C143.961 14.7933 143.691 14.7 143.317 14.7C143.084 14.7 142.847 14.73 142.607 14.79C142.374 14.85 142.131 14.9467 141.877 15.08C141.764 15.14 141.667 15.1533 141.587 15.12C141.514 15.08 141.461 15.02 141.427 14.94C141.401 14.8533 141.401 14.7667 141.427 14.68C141.461 14.5867 141.527 14.5167 141.627 14.47C141.914 14.3233 142.201 14.2167 142.487 14.15C142.781 14.0833 143.057 14.05 143.317 14.05C143.944 14.05 144.407 14.2033 144.707 14.51C145.014 14.8167 145.167 15.2933 145.167 15.94V18.65C145.167 18.93 145.044 19.07 144.797 19.07C144.537 19.07 144.407 18.93 144.407 18.65V18.16C144.281 18.4467 144.084 18.6733 143.817 18.84C143.557 19.0067 143.251 19.09 142.897 19.09ZM143.027 18.48C143.427 18.48 143.754 18.3433 144.007 18.07C144.261 17.79 144.387 17.4367 144.387 17.01V16.71H144.077C143.537 16.71 143.111 16.7367 142.797 16.79C142.491 16.8367 142.274 16.9233 142.147 17.05C142.027 17.17 141.967 17.3367 141.967 17.55C141.967 17.8233 142.061 18.0467 142.247 18.22C142.441 18.3933 142.701 18.48 143.027 18.48ZM147.07 20.87C146.803 20.87 146.67 20.7333 146.67 20.46V14.48C146.67 14.2067 146.8 14.07 147.06 14.07C147.333 14.07 147.47 14.2067 147.47 14.48V15C147.61 14.7067 147.827 14.4767 148.12 14.31C148.413 14.1367 148.75 14.05 149.13 14.05C149.563 14.05 149.94 14.1533 150.26 14.36C150.587 14.56 150.837 14.85 151.01 15.23C151.19 15.6033 151.28 16.05 151.28 16.57C151.28 17.0833 151.19 17.53 151.01 17.91C150.837 18.2833 150.587 18.5733 150.26 18.78C149.94 18.9867 149.563 19.09 149.13 19.09C148.757 19.09 148.423 19.0067 148.13 18.84C147.837 18.6733 147.62 18.4433 147.48 18.15V20.46C147.48 20.7333 147.343 20.87 147.07 20.87ZM148.96 18.44C149.413 18.44 149.777 18.28 150.05 17.96C150.323 17.6333 150.46 17.17 150.46 16.57C150.46 15.9633 150.323 15.5 150.05 15.18C149.777 14.86 149.413 14.7 148.96 14.7C148.507 14.7 148.143 14.86 147.87 15.18C147.597 15.5 147.46 15.9633 147.46 16.57C147.46 17.17 147.597 17.6333 147.87 17.96C148.143 18.28 148.507 18.44 148.96 18.44ZM152.9 20.87C152.634 20.87 152.5 20.7333 152.5 20.46V14.48C152.5 14.2067 152.63 14.07 152.89 14.07C153.164 14.07 153.3 14.2067 153.3 14.48V15C153.44 14.7067 153.657 14.4767 153.95 14.31C154.244 14.1367 154.58 14.05 154.96 14.05C155.394 14.05 155.77 14.1533 156.09 14.36C156.417 14.56 156.667 14.85 156.84 15.23C157.02 15.6033 157.11 16.05 157.11 16.57C157.11 17.0833 157.02 17.53 156.84 17.91C156.667 18.2833 156.417 18.5733 156.09 18.78C155.77 18.9867 155.394 19.09 154.96 19.09C154.587 19.09 154.254 19.0067 153.96 18.84C153.667 18.6733 153.45 18.4433 153.31 18.15V20.46C153.31 20.7333 153.174 20.87 152.9 20.87ZM154.79 18.44C155.244 18.44 155.607 18.28 155.88 17.96C156.154 17.6333 156.29 17.17 156.29 16.57C156.29 15.9633 156.154 15.5 155.88 15.18C155.607 14.86 155.244 14.7 154.79 14.7C154.337 14.7 153.974 14.86 153.7 15.18C153.427 15.5 153.29 15.9633 153.29 16.57C153.29 17.17 153.427 17.6333 153.7 17.96C153.974 18.28 154.337 18.44 154.79 18.44ZM159.342 20.87C159.189 20.87 159.085 20.81 159.032 20.69C158.979 20.5767 158.982 20.4467 159.042 20.3L159.652 18.92L157.812 14.64C157.745 14.4867 157.742 14.3533 157.802 14.24C157.869 14.1267 157.992 14.07 158.172 14.07C158.359 14.07 158.495 14.1767 158.582 14.39L160.092 18.08L161.612 14.39C161.665 14.27 161.722 14.1867 161.782 14.14C161.842 14.0933 161.929 14.07 162.042 14.07C162.195 14.07 162.299 14.1267 162.352 14.24C162.405 14.3533 162.402 14.4833 162.342 14.63L159.782 20.55C159.729 20.67 159.669 20.7533 159.602 20.8C159.542 20.8467 159.455 20.87 159.342 20.87ZM169.137 19.09C168.443 19.09 167.85 18.9433 167.357 18.65C166.863 18.3567 166.483 17.94 166.217 17.4C165.957 16.86 165.827 16.2167 165.827 15.47C165.827 14.73 165.957 14.09 166.217 13.55C166.483 13.01 166.863 12.5933 167.357 12.3C167.85 12.0067 168.443 11.86 169.137 11.86C169.55 11.86 169.943 11.92 170.317 12.04C170.69 12.16 171.013 12.33 171.287 12.55C171.4 12.63 171.463 12.7233 171.477 12.83C171.497 12.9367 171.48 13.0333 171.427 13.12C171.373 13.2 171.297 13.2533 171.197 13.28C171.103 13.3 170.997 13.2667 170.877 13.18C170.403 12.8 169.83 12.61 169.157 12.61C168.363 12.61 167.757 12.86 167.337 13.36C166.917 13.86 166.707 14.5633 166.707 15.47C166.707 16.3833 166.917 17.09 167.337 17.59C167.757 18.09 168.363 18.34 169.157 18.34C169.83 18.34 170.41 18.1467 170.897 17.76C171.017 17.68 171.123 17.65 171.217 17.67C171.317 17.69 171.39 17.74 171.437 17.82C171.49 17.9 171.51 17.99 171.497 18.09C171.483 18.19 171.427 18.28 171.327 18.36C171.04 18.6 170.71 18.7833 170.337 18.91C169.963 19.03 169.563 19.09 169.137 19.09ZM174.318 19.09C173.151 19.09 172.568 18.4467 172.568 17.16V14.48C172.568 14.2067 172.701 14.07 172.968 14.07C173.241 14.07 173.378 14.2067 173.378 14.48V17.15C173.378 17.5833 173.465 17.9033 173.638 18.11C173.818 18.3167 174.098 18.42 174.478 18.42C174.891 18.42 175.228 18.2833 175.488 18.01C175.748 17.73 175.878 17.36 175.878 16.9V14.48C175.878 14.2067 176.015 14.07 176.288 14.07C176.555 14.07 176.688 14.2067 176.688 14.48V18.65C176.688 18.93 176.558 19.07 176.298 19.07C176.031 19.07 175.898 18.93 175.898 18.65V18.18C175.745 18.4733 175.528 18.7 175.248 18.86C174.975 19.0133 174.665 19.09 174.318 19.09ZM179.843 19.09C179.543 19.09 179.24 19.0533 178.933 18.98C178.633 18.9 178.353 18.7733 178.093 18.6C177.973 18.5267 177.913 18.4333 177.913 18.32C177.92 18.2 177.967 18.1067 178.053 18.04C178.14 17.9733 178.25 17.9733 178.383 18.04C178.643 18.2 178.893 18.3133 179.133 18.38C179.38 18.44 179.623 18.47 179.863 18.47C180.243 18.47 180.53 18.4 180.723 18.26C180.917 18.12 181.013 17.93 181.013 17.69C181.013 17.5033 180.95 17.3567 180.823 17.25C180.697 17.1367 180.497 17.05 180.223 16.99L179.313 16.79C178.487 16.61 178.073 16.1833 178.073 15.51C178.073 15.07 178.247 14.7167 178.593 14.45C178.947 14.1833 179.407 14.05 179.973 14.05C180.26 14.05 180.537 14.09 180.803 14.17C181.07 14.2433 181.31 14.3633 181.523 14.53C181.637 14.61 181.687 14.7067 181.673 14.82C181.66 14.9333 181.607 15.0233 181.513 15.09C181.427 15.15 181.32 15.14 181.193 15.06C180.993 14.9267 180.79 14.83 180.583 14.77C180.377 14.7033 180.173 14.67 179.973 14.67C179.6 14.67 179.317 14.7433 179.123 14.89C178.93 15.0367 178.833 15.23 178.833 15.47C178.833 15.8433 179.08 16.0833 179.573 16.19L180.483 16.38C180.91 16.4733 181.233 16.6233 181.453 16.83C181.673 17.03 181.783 17.3033 181.783 17.65C181.783 18.0967 181.607 18.45 181.253 18.71C180.9 18.9633 180.43 19.09 179.843 19.09ZM184.919 19.09C184.346 19.09 183.916 18.94 183.629 18.64C183.342 18.3333 183.199 17.8933 183.199 17.32V14.77H182.529C182.296 14.77 182.179 14.6633 182.179 14.45C182.179 14.2433 182.296 14.14 182.529 14.14H183.199V12.99C183.199 12.7167 183.336 12.58 183.609 12.58C183.876 12.58 184.009 12.7167 184.009 12.99V14.14H185.269C185.502 14.14 185.619 14.2433 185.619 14.45C185.619 14.6633 185.502 14.77 185.269 14.77H184.009V17.24C184.009 17.62 184.089 17.91 184.249 18.11C184.409 18.3033 184.669 18.4 185.029 18.4C185.156 18.4 185.262 18.3867 185.349 18.36C185.436 18.3333 185.512 18.32 185.579 18.32C185.639 18.3133 185.689 18.3333 185.729 18.38C185.769 18.4267 185.789 18.5067 185.789 18.62C185.789 18.7 185.772 18.7733 185.739 18.84C185.712 18.9067 185.662 18.9533 185.589 18.98C185.509 19.0067 185.402 19.03 185.269 19.05C185.142 19.0767 185.026 19.09 184.919 19.09ZM188.436 19.09C187.963 19.09 187.553 18.9867 187.206 18.78C186.86 18.5733 186.59 18.2833 186.396 17.91C186.21 17.53 186.116 17.0833 186.116 16.57C186.116 16.0567 186.21 15.6133 186.396 15.24C186.59 14.86 186.86 14.5667 187.206 14.36C187.553 14.1533 187.963 14.05 188.436 14.05C188.903 14.05 189.31 14.1533 189.656 14.36C190.01 14.5667 190.28 14.86 190.466 15.24C190.66 15.6133 190.756 16.0567 190.756 16.57C190.756 17.0833 190.66 17.53 190.466 17.91C190.28 18.2833 190.01 18.5733 189.656 18.78C189.31 18.9867 188.903 19.09 188.436 19.09ZM188.436 18.44C188.89 18.44 189.253 18.28 189.526 17.96C189.8 17.6333 189.936 17.17 189.936 16.57C189.936 15.9633 189.8 15.5 189.526 15.18C189.253 14.86 188.89 14.7 188.436 14.7C187.976 14.7 187.61 14.86 187.336 15.18C187.07 15.5 186.936 15.9633 186.936 16.57C186.936 17.17 187.07 17.6333 187.336 17.96C187.61 18.28 187.976 18.44 188.436 18.44ZM192.393 19.07C192.126 19.07 191.993 18.93 191.993 18.65V14.48C191.993 14.2067 192.123 14.07 192.383 14.07C192.65 14.07 192.783 14.2067 192.783 14.48V14.96C192.93 14.6667 193.133 14.4433 193.393 14.29C193.653 14.13 193.956 14.05 194.303 14.05C195.063 14.05 195.55 14.38 195.763 15.04C195.91 14.7333 196.126 14.4933 196.413 14.32C196.7 14.14 197.03 14.05 197.403 14.05C198.483 14.05 199.023 14.69 199.023 15.97V18.65C199.023 18.93 198.886 19.07 198.613 19.07C198.346 19.07 198.213 18.93 198.213 18.65V16.01C198.213 15.5633 198.133 15.2367 197.973 15.03C197.82 14.8167 197.563 14.71 197.203 14.71C196.81 14.71 196.496 14.85 196.263 15.13C196.03 15.41 195.913 15.7833 195.913 16.25V18.65C195.913 18.93 195.776 19.07 195.503 19.07C195.236 19.07 195.103 18.93 195.103 18.65V16.01C195.103 15.5633 195.023 15.2367 194.863 15.03C194.71 14.8167 194.453 14.71 194.093 14.71C193.693 14.71 193.376 14.85 193.143 15.13C192.916 15.41 192.803 15.7833 192.803 16.25V18.65C192.803 18.93 192.666 19.07 192.393 19.07ZM200.947 19.07C200.674 19.07 200.537 18.93 200.537 18.65V14.48C200.537 14.2067 200.667 14.07 200.927 14.07C201.194 14.07 201.327 14.2067 201.327 14.48V15.01C201.461 14.7033 201.667 14.47 201.947 14.31C202.227 14.1433 202.561 14.0533 202.947 14.04C203.161 14.02 203.274 14.1267 203.287 14.36C203.307 14.5933 203.187 14.7233 202.927 14.75L202.767 14.77C202.307 14.81 201.957 14.9567 201.717 15.21C201.477 15.4567 201.357 15.7967 201.357 16.23V18.65C201.357 18.93 201.221 19.07 200.947 19.07ZM205.713 19.09C205.413 19.09 205.109 19.0533 204.803 18.98C204.503 18.9 204.223 18.7733 203.963 18.6C203.843 18.5267 203.783 18.4333 203.783 18.32C203.789 18.2 203.836 18.1067 203.923 18.04C204.009 17.9733 204.119 17.9733 204.253 18.04C204.513 18.2 204.763 18.3133 205.003 18.38C205.249 18.44 205.493 18.47 205.733 18.47C206.113 18.47 206.399 18.4 206.593 18.26C206.786 18.12 206.883 17.93 206.883 17.69C206.883 17.5033 206.819 17.3567 206.693 17.25C206.566 17.1367 206.366 17.05 206.093 16.99L205.183 16.79C204.356 16.61 203.943 16.1833 203.943 15.51C203.943 15.07 204.116 14.7167 204.463 14.45C204.816 14.1833 205.276 14.05 205.843 14.05C206.129 14.05 206.406 14.09 206.673 14.17C206.939 14.2433 207.179 14.3633 207.393 14.53C207.506 14.61 207.556 14.7067 207.543 14.82C207.529 14.9333 207.476 15.0233 207.383 15.09C207.296 15.15 207.189 15.14 207.063 15.06C206.863 14.9267 206.659 14.83 206.453 14.77C206.246 14.7033 206.043 14.67 205.843 14.67C205.469 14.67 205.186 14.7433 204.993 14.89C204.799 15.0367 204.703 15.23 204.703 15.47C204.703 15.8433 204.949 16.0833 205.443 16.19L206.353 16.38C206.779 16.4733 207.103 16.6233 207.323 16.83C207.543 17.03 207.653 17.3033 207.653 17.65C207.653 18.0967 207.476 18.45 207.123 18.71C206.769 18.9633 206.299 19.09 205.713 19.09Z" fill="#212529"/>
<rect x="231" width="128" height="32" rx="16" fill="url(#paint1_linear_673_27185)"/>
<path d="M244.6 20.12C243.616 20.12 242.844 19.908 242.284 19.484C241.732 19.06 241.456 18.472 241.456 17.72C241.456 17.208 241.588 16.772 241.852 16.412C242.124 16.052 242.476 15.8 242.908 15.656C242.524 15.488 242.22 15.232 241.996 14.888C241.78 14.544 241.672 14.148 241.672 13.7C241.672 12.988 241.936 12.432 242.464 12.032C242.992 11.624 243.704 11.42 244.6 11.42C245.504 11.42 246.22 11.624 246.748 12.032C247.276 12.432 247.54 12.988 247.54 13.7C247.54 14.148 247.428 14.548 247.204 14.9C246.988 15.244 246.692 15.496 246.316 15.656C246.748 15.8 247.092 16.056 247.348 16.424C247.612 16.784 247.744 17.216 247.744 17.72C247.744 18.472 247.464 19.06 246.904 19.484C246.352 19.908 245.584 20.12 244.6 20.12ZM244.6 15.116C245.072 15.116 245.44 15.004 245.704 14.78C245.976 14.556 246.112 14.248 246.112 13.856C246.112 13.472 245.976 13.172 245.704 12.956C245.44 12.732 245.072 12.62 244.6 12.62C244.128 12.62 243.76 12.732 243.496 12.956C243.232 13.172 243.1 13.472 243.1 13.856C243.1 14.248 243.232 14.556 243.496 14.78C243.76 15.004 244.128 15.116 244.6 15.116ZM244.6 18.92C245.744 18.92 246.316 18.484 246.316 17.612C246.316 16.748 245.744 16.316 244.6 16.316C244.04 16.316 243.612 16.424 243.316 16.64C243.028 16.856 242.884 17.18 242.884 17.612C242.884 18.044 243.028 18.372 243.316 18.596C243.612 18.812 244.04 18.92 244.6 18.92ZM251.795 20.12C250.795 20.12 250.031 19.744 249.503 18.992C248.975 18.232 248.711 17.152 248.711 15.752C248.711 14.336 248.975 13.26 249.503 12.524C250.031 11.788 250.795 11.42 251.795 11.42C252.803 11.42 253.567 11.788 254.087 12.524C254.615 13.26 254.879 14.332 254.879 15.74C254.879 17.148 254.615 18.232 254.087 18.992C253.559 19.744 252.795 20.12 251.795 20.12ZM251.795 18.86C252.339 18.86 252.739 18.608 252.995 18.104C253.259 17.6 253.391 16.812 253.391 15.74C253.391 14.668 253.259 13.892 252.995 13.412C252.739 12.924 252.339 12.68 251.795 12.68C251.259 12.68 250.859 12.924 250.595 13.412C250.331 13.892 250.199 14.668 250.199 15.74C250.199 16.812 250.331 17.6 250.595 18.104C250.859 18.608 251.259 18.86 251.795 18.86ZM258.991 20.12C257.991 20.12 257.227 19.744 256.699 18.992C256.171 18.232 255.907 17.152 255.907 15.752C255.907 14.336 256.171 13.26 256.699 12.524C257.227 11.788 257.991 11.42 258.991 11.42C259.999 11.42 260.763 11.788 261.283 12.524C261.811 13.26 262.075 14.332 262.075 15.74C262.075 17.148 261.811 18.232 261.283 18.992C260.755 19.744 259.991 20.12 258.991 20.12ZM258.991 18.86C259.535 18.86 259.935 18.608 260.191 18.104C260.455 17.6 260.587 16.812 260.587 15.74C260.587 14.668 260.455 13.892 260.191 13.412C259.935 12.924 259.535 12.68 258.991 12.68C258.455 12.68 258.055 12.924 257.791 13.412C257.527 13.892 257.395 14.668 257.395 15.74C257.395 16.812 257.527 17.6 257.791 18.104C258.055 18.608 258.455 18.86 258.991 18.86ZM266.186 19.616C265.818 19.616 265.634 19.428 265.634 19.052V17.084H263.702C263.342 17.084 263.162 16.908 263.162 16.556C263.162 16.204 263.342 16.028 263.702 16.028H265.634V14.12C265.634 13.752 265.818 13.568 266.186 13.568C266.554 13.568 266.738 13.752 266.738 14.12V16.028H268.67C269.03 16.028 269.21 16.204 269.21 16.556C269.21 16.908 269.03 17.084 268.67 17.084H266.738V19.052C266.738 19.428 266.554 19.616 266.186 19.616Z" fill="#212529"/>
<path d="M282.09 19.09C280.957 19.09 280.093 18.77 279.5 18.13C278.907 17.49 278.61 16.6067 278.61 15.48C278.61 14.7333 278.743 14.09 279.01 13.55C279.277 13.01 279.66 12.5933 280.16 12.3C280.66 12.0067 281.263 11.86 281.97 11.86C282.39 11.86 282.797 11.92 283.19 12.04C283.583 12.1533 283.933 12.3367 284.24 12.59C284.333 12.6567 284.387 12.74 284.4 12.84C284.413 12.9333 284.393 13.0233 284.34 13.11C284.293 13.19 284.223 13.2433 284.13 13.27C284.043 13.2967 283.95 13.2767 283.85 13.21C283.577 12.9967 283.287 12.8433 282.98 12.75C282.673 12.65 282.333 12.6 281.96 12.6C281.16 12.6 280.547 12.8533 280.12 13.36C279.693 13.86 279.48 14.5667 279.48 15.48C279.48 16.4133 279.7 17.1267 280.14 17.62C280.58 18.1133 281.237 18.36 282.11 18.36C282.677 18.36 283.22 18.2633 283.74 18.07V15.98H282.31C282.07 15.98 281.95 15.87 281.95 15.65C281.95 15.4367 282.07 15.33 282.31 15.33H284.1C284.333 15.33 284.45 15.4467 284.45 15.68V18.29C284.45 18.4967 284.377 18.63 284.23 18.69C283.95 18.81 283.613 18.9067 283.22 18.98C282.833 19.0533 282.457 19.09 282.09 19.09ZM287.546 19.09C287.213 19.09 286.913 19.0267 286.646 18.9C286.386 18.7667 286.179 18.5867 286.026 18.36C285.873 18.1333 285.796 17.88 285.796 17.6C285.796 17.2467 285.886 16.9667 286.066 16.76C286.253 16.5533 286.556 16.4067 286.976 16.32C287.403 16.2267 287.983 16.18 288.716 16.18H289.036V15.87C289.036 15.4567 288.949 15.16 288.776 14.98C288.609 14.7933 288.339 14.7 287.966 14.7C287.733 14.7 287.496 14.73 287.256 14.79C287.023 14.85 286.779 14.9467 286.526 15.08C286.413 15.14 286.316 15.1533 286.236 15.12C286.163 15.08 286.109 15.02 286.076 14.94C286.049 14.8533 286.049 14.7667 286.076 14.68C286.109 14.5867 286.176 14.5167 286.276 14.47C286.563 14.3233 286.849 14.2167 287.136 14.15C287.429 14.0833 287.706 14.05 287.966 14.05C288.593 14.05 289.056 14.2033 289.356 14.51C289.663 14.8167 289.816 15.2933 289.816 15.94V18.65C289.816 18.93 289.693 19.07 289.446 19.07C289.186 19.07 289.056 18.93 289.056 18.65V18.16C288.929 18.4467 288.733 18.6733 288.466 18.84C288.206 19.0067 287.899 19.09 287.546 19.09ZM287.676 18.48C288.076 18.48 288.403 18.3433 288.656 18.07C288.909 17.79 289.036 17.4367 289.036 17.01V16.71H288.726C288.186 16.71 287.759 16.7367 287.446 16.79C287.139 16.8367 286.923 16.9233 286.796 17.05C286.676 17.17 286.616 17.3367 286.616 17.55C286.616 17.8233 286.709 18.0467 286.896 18.22C287.089 18.3933 287.349 18.48 287.676 18.48ZM291.729 19.07C291.455 19.07 291.319 18.93 291.319 18.65V14.48C291.319 14.2067 291.449 14.07 291.709 14.07C291.975 14.07 292.109 14.2067 292.109 14.48V15.01C292.242 14.7033 292.449 14.47 292.729 14.31C293.009 14.1433 293.342 14.0533 293.729 14.04C293.942 14.02 294.055 14.1267 294.069 14.36C294.089 14.5933 293.969 14.7233 293.709 14.75L293.549 14.77C293.089 14.81 292.739 14.9567 292.499 15.21C292.259 15.4567 292.139 15.7967 292.139 16.23V18.65C292.139 18.93 292.002 19.07 291.729 19.07ZM296.694 19.09C296.261 19.09 295.881 18.9867 295.554 18.78C295.234 18.5733 294.984 18.2833 294.804 17.91C294.631 17.53 294.544 17.0833 294.544 16.57C294.544 16.05 294.631 15.6033 294.804 15.23C294.984 14.85 295.234 14.56 295.554 14.36C295.881 14.1533 296.261 14.05 296.694 14.05C297.074 14.05 297.407 14.1333 297.694 14.3C297.987 14.4667 298.204 14.6967 298.344 14.99V12.29C298.344 12.0167 298.481 11.88 298.754 11.88C299.021 11.88 299.154 12.0167 299.154 12.29V18.65C299.154 18.93 299.021 19.07 298.754 19.07C298.487 19.07 298.354 18.93 298.354 18.65V18.13C298.207 18.43 297.987 18.6667 297.694 18.84C297.407 19.0067 297.074 19.09 296.694 19.09ZM296.864 18.44C297.317 18.44 297.681 18.28 297.954 17.96C298.227 17.6333 298.364 17.17 298.364 16.57C298.364 15.9633 298.227 15.5 297.954 15.18C297.681 14.86 297.317 14.7 296.864 14.7C296.404 14.7 296.037 14.86 295.764 15.18C295.497 15.5 295.364 15.9633 295.364 16.57C295.364 17.17 295.497 17.6333 295.764 17.96C296.037 18.28 296.404 18.44 296.864 18.44ZM302.864 19.09C302.097 19.09 301.491 18.8667 301.044 18.42C300.597 17.9667 300.374 17.3533 300.374 16.58C300.374 16.08 300.474 15.64 300.674 15.26C300.874 14.8733 301.147 14.5767 301.494 14.37C301.847 14.1567 302.254 14.05 302.714 14.05C303.374 14.05 303.891 14.2633 304.264 14.69C304.637 15.11 304.824 15.69 304.824 16.43C304.824 16.6367 304.707 16.74 304.474 16.74H301.164C301.191 17.2933 301.351 17.7167 301.644 18.01C301.937 18.2967 302.344 18.44 302.864 18.44C303.084 18.44 303.307 18.4133 303.534 18.36C303.761 18.3 303.981 18.1967 304.194 18.05C304.347 17.95 304.474 17.93 304.574 17.99C304.681 18.05 304.734 18.1433 304.734 18.27C304.741 18.39 304.674 18.4967 304.534 18.59C304.314 18.75 304.051 18.8733 303.744 18.96C303.444 19.0467 303.151 19.09 302.864 19.09ZM302.734 14.65C302.274 14.65 301.911 14.7933 301.644 15.08C301.377 15.3667 301.221 15.7433 301.174 16.21H304.124C304.104 15.7167 303.974 15.3333 303.734 15.06C303.501 14.7867 303.167 14.65 302.734 14.65ZM306.396 19.07C306.13 19.07 305.996 18.93 305.996 18.65V14.48C305.996 14.2067 306.126 14.07 306.386 14.07C306.653 14.07 306.786 14.2067 306.786 14.48V14.97C306.946 14.6633 307.173 14.4333 307.466 14.28C307.76 14.1267 308.09 14.05 308.456 14.05C309.61 14.05 310.186 14.69 310.186 15.97V18.65C310.186 18.93 310.053 19.07 309.786 19.07C309.513 19.07 309.376 18.93 309.376 18.65V16.02C309.376 15.5667 309.286 15.2367 309.106 15.03C308.933 14.8167 308.653 14.71 308.266 14.71C307.82 14.71 307.463 14.85 307.196 15.13C306.936 15.4033 306.806 15.77 306.806 16.23V18.65C306.806 18.93 306.67 19.07 306.396 19.07ZM317.418 19.09C316.725 19.09 316.131 18.9433 315.638 18.65C315.145 18.3567 314.765 17.94 314.498 17.4C314.238 16.86 314.108 16.2167 314.108 15.47C314.108 14.73 314.238 14.09 314.498 13.55C314.765 13.01 315.145 12.5933 315.638 12.3C316.131 12.0067 316.725 11.86 317.418 11.86C317.831 11.86 318.225 11.92 318.598 12.04C318.971 12.16 319.295 12.33 319.568 12.55C319.681 12.63 319.745 12.7233 319.758 12.83C319.778 12.9367 319.761 13.0333 319.708 13.12C319.655 13.2 319.578 13.2533 319.478 13.28C319.385 13.3 319.278 13.2667 319.158 13.18C318.685 12.8 318.111 12.61 317.438 12.61C316.645 12.61 316.038 12.86 315.618 13.36C315.198 13.86 314.988 14.5633 314.988 15.47C314.988 16.3833 315.198 17.09 315.618 17.59C316.038 18.09 316.645 18.34 317.438 18.34C318.111 18.34 318.691 18.1467 319.178 17.76C319.298 17.68 319.405 17.65 319.498 17.67C319.598 17.69 319.671 17.74 319.718 17.82C319.771 17.9 319.791 17.99 319.778 18.09C319.765 18.19 319.708 18.28 319.608 18.36C319.321 18.6 318.991 18.7833 318.618 18.91C318.245 19.03 317.845 19.09 317.418 19.09ZM321.397 19.07C321.123 19.07 320.987 18.93 320.987 18.65V14.48C320.987 14.2067 321.117 14.07 321.377 14.07C321.643 14.07 321.777 14.2067 321.777 14.48V15.01C321.91 14.7033 322.117 14.47 322.397 14.31C322.677 14.1433 323.01 14.0533 323.397 14.04C323.61 14.02 323.723 14.1267 323.737 14.36C323.757 14.5933 323.637 14.7233 323.377 14.75L323.217 14.77C322.757 14.81 322.407 14.9567 322.167 15.21C321.927 15.4567 321.807 15.7967 321.807 16.23V18.65C321.807 18.93 321.67 19.07 321.397 19.07ZM326.702 19.09C325.935 19.09 325.329 18.8667 324.882 18.42C324.435 17.9667 324.212 17.3533 324.212 16.58C324.212 16.08 324.312 15.64 324.512 15.26C324.712 14.8733 324.985 14.5767 325.332 14.37C325.685 14.1567 326.092 14.05 326.552 14.05C327.212 14.05 327.729 14.2633 328.102 14.69C328.475 15.11 328.662 15.69 328.662 16.43C328.662 16.6367 328.545 16.74 328.312 16.74H325.002C325.029 17.2933 325.189 17.7167 325.482 18.01C325.775 18.2967 326.182 18.44 326.702 18.44C326.922 18.44 327.145 18.4133 327.372 18.36C327.599 18.3 327.819 18.1967 328.032 18.05C328.185 17.95 328.312 17.93 328.412 17.99C328.519 18.05 328.572 18.1433 328.572 18.27C328.579 18.39 328.512 18.4967 328.372 18.59C328.152 18.75 327.889 18.8733 327.582 18.96C327.282 19.0467 326.989 19.09 326.702 19.09ZM326.572 14.65C326.112 14.65 325.749 14.7933 325.482 15.08C325.215 15.3667 325.059 15.7433 325.012 16.21H327.962C327.942 15.7167 327.812 15.3333 327.572 15.06C327.339 14.7867 327.005 14.65 326.572 14.65ZM331.364 19.09C331.031 19.09 330.731 19.0267 330.464 18.9C330.204 18.7667 329.998 18.5867 329.844 18.36C329.691 18.1333 329.614 17.88 329.614 17.6C329.614 17.2467 329.704 16.9667 329.884 16.76C330.071 16.5533 330.374 16.4067 330.794 16.32C331.221 16.2267 331.801 16.18 332.534 16.18H332.854V15.87C332.854 15.4567 332.768 15.16 332.594 14.98C332.428 14.7933 332.158 14.7 331.784 14.7C331.551 14.7 331.314 14.73 331.074 14.79C330.841 14.85 330.598 14.9467 330.344 15.08C330.231 15.14 330.134 15.1533 330.054 15.12C329.981 15.08 329.928 15.02 329.894 14.94C329.868 14.8533 329.868 14.7667 329.894 14.68C329.928 14.5867 329.994 14.5167 330.094 14.47C330.381 14.3233 330.668 14.2167 330.954 14.15C331.248 14.0833 331.524 14.05 331.784 14.05C332.411 14.05 332.874 14.2033 333.174 14.51C333.481 14.8167 333.634 15.2933 333.634 15.94V18.65C333.634 18.93 333.511 19.07 333.264 19.07C333.004 19.07 332.874 18.93 332.874 18.65V18.16C332.748 18.4467 332.551 18.6733 332.284 18.84C332.024 19.0067 331.718 19.09 331.364 19.09ZM331.494 18.48C331.894 18.48 332.221 18.3433 332.474 18.07C332.728 17.79 332.854 17.4367 332.854 17.01V16.71H332.544C332.004 16.71 331.578 16.7367 331.264 16.79C330.958 16.8367 330.741 16.9233 330.614 17.05C330.494 17.17 330.434 17.3367 330.434 17.55C330.434 17.8233 330.528 18.0467 330.714 18.22C330.908 18.3933 331.168 18.48 331.494 18.48ZM337.087 19.09C336.514 19.09 336.084 18.94 335.797 18.64C335.51 18.3333 335.367 17.8933 335.367 17.32V14.77H334.697C334.464 14.77 334.347 14.6633 334.347 14.45C334.347 14.2433 334.464 14.14 334.697 14.14H335.367V12.99C335.367 12.7167 335.504 12.58 335.777 12.58C336.044 12.58 336.177 12.7167 336.177 12.99V14.14H337.437C337.67 14.14 337.787 14.2433 337.787 14.45C337.787 14.6633 337.67 14.77 337.437 14.77H336.177V17.24C336.177 17.62 336.257 17.91 336.417 18.11C336.577 18.3033 336.837 18.4 337.197 18.4C337.324 18.4 337.43 18.3867 337.517 18.36C337.604 18.3333 337.68 18.32 337.747 18.32C337.807 18.3133 337.857 18.3333 337.897 18.38C337.937 18.4267 337.957 18.5067 337.957 18.62C337.957 18.7 337.94 18.7733 337.907 18.84C337.88 18.9067 337.83 18.9533 337.757 18.98C337.677 19.0067 337.57 19.03 337.437 19.05C337.31 19.0767 337.194 19.09 337.087 19.09ZM340.774 19.09C340.008 19.09 339.401 18.8667 338.954 18.42C338.508 17.9667 338.284 17.3533 338.284 16.58C338.284 16.08 338.384 15.64 338.584 15.26C338.784 14.8733 339.058 14.5767 339.404 14.37C339.758 14.1567 340.164 14.05 340.624 14.05C341.284 14.05 341.801 14.2633 342.174 14.69C342.548 15.11 342.734 15.69 342.734 16.43C342.734 16.6367 342.618 16.74 342.384 16.74H339.074C339.101 17.2933 339.261 17.7167 339.554 18.01C339.848 18.2967 340.254 18.44 340.774 18.44C340.994 18.44 341.218 18.4133 341.444 18.36C341.671 18.3 341.891 18.1967 342.104 18.05C342.258 17.95 342.384 17.93 342.484 17.99C342.591 18.05 342.644 18.1433 342.644 18.27C342.651 18.39 342.584 18.4967 342.444 18.59C342.224 18.75 341.961 18.8733 341.654 18.96C341.354 19.0467 341.061 19.09 340.774 19.09ZM340.644 14.65C340.184 14.65 339.821 14.7933 339.554 15.08C339.288 15.3667 339.131 15.7433 339.084 16.21H342.034C342.014 15.7167 341.884 15.3333 341.644 15.06C341.411 14.7867 341.078 14.65 340.644 14.65ZM345.756 19.09C345.323 19.09 344.943 18.9867 344.616 18.78C344.296 18.5733 344.046 18.2833 343.866 17.91C343.693 17.53 343.606 17.0833 343.606 16.57C343.606 16.05 343.693 15.6033 343.866 15.23C344.046 14.85 344.296 14.56 344.616 14.36C344.943 14.1533 345.323 14.05 345.756 14.05C346.136 14.05 346.47 14.1333 346.756 14.3C347.05 14.4667 347.266 14.6967 347.406 14.99V12.29C347.406 12.0167 347.543 11.88 347.816 11.88C348.083 11.88 348.216 12.0167 348.216 12.29V18.65C348.216 18.93 348.083 19.07 347.816 19.07C347.55 19.07 347.416 18.93 347.416 18.65V18.13C347.27 18.43 347.05 18.6667 346.756 18.84C346.47 19.0067 346.136 19.09 345.756 19.09ZM345.926 18.44C346.38 18.44 346.743 18.28 347.016 17.96C347.29 17.6333 347.426 17.17 347.426 16.57C347.426 15.9633 347.29 15.5 347.016 15.18C346.743 14.86 346.38 14.7 345.926 14.7C345.466 14.7 345.1 14.86 344.826 15.18C344.56 15.5 344.426 15.9633 344.426 16.57C344.426 17.17 344.56 17.6333 344.826 17.96C345.1 18.28 345.466 18.44 345.926 18.44Z" fill="#212529"/>
<defs>
<linearGradient id="paint0_linear_673_27185" x1="152.5" y1="0" x2="152.5" y2="32" gradientUnits="userSpaceOnUse">
<stop stop-color="#FFF8F1"/>
<stop offset="1" stop-color="#CBE5CE"/>
</linearGradient>
<linearGradient id="paint1_linear_673_27185" x1="295" y1="0" x2="295" y2="32" gradientUnits="userSpaceOnUse">
<stop stop-color="#FFF8F1"/>
<stop offset="1" stop-color="#D7E8D9"/>
</linearGradient>
</defs>
</svg>
