<svg width="467" height="50" viewBox="0 0 467 50" fill="none" xmlns="http://www.w3.org/2000/svg">
<rect width="50" height="50" rx="25" fill="url(#paint0_linear_486_3952)"/>
<path d="M11.59 30.15C11.06 30.15 10.52 30.08 9.97 29.94C9.42 29.8 8.915 29.585 8.455 29.295C8.215 29.145 8.07 28.965 8.02 28.755C7.98 28.535 8.01 28.335 8.11 28.155C8.21 27.965 8.355 27.84 8.545 27.78C8.745 27.71 8.97 27.745 9.22 27.885C9.59 28.095 9.965 28.255 10.345 28.365C10.725 28.475 11.13 28.53 11.56 28.53C12.19 28.53 12.68 28.37 13.03 28.05C13.39 27.72 13.57 27.28 13.57 26.73C13.57 26.17 13.4 25.72 13.06 25.38C12.72 25.03 12.255 24.855 11.665 24.855C11.345 24.855 11.035 24.91 10.735 25.02C10.435 25.12 10.14 25.3 9.85 25.56C9.76 25.64 9.645 25.72 9.505 25.8C9.365 25.87 9.215 25.905 9.055 25.905C8.545 25.905 8.29 25.66 8.29 25.17V20.265C8.29 19.705 8.57 19.425 9.13 19.425H14.065C14.625 19.425 14.905 19.69 14.905 20.22C14.905 20.75 14.625 21.015 14.065 21.015H10.165V23.88C10.695 23.48 11.345 23.28 12.115 23.28C12.785 23.28 13.365 23.425 13.855 23.715C14.355 23.995 14.74 24.39 15.01 24.9C15.29 25.4 15.43 25.985 15.43 26.655C15.43 27.345 15.275 27.955 14.965 28.485C14.655 29.005 14.21 29.415 13.63 29.715C13.06 30.005 12.38 30.15 11.59 30.15ZM20.4941 30.15C19.2441 30.15 18.2891 29.68 17.6291 28.74C16.9691 27.79 16.6391 26.44 16.6391 24.69C16.6391 22.92 16.9691 21.575 17.6291 20.655C18.2891 19.735 19.2441 19.275 20.4941 19.275C21.7541 19.275 22.7091 19.735 23.3591 20.655C24.0191 21.575 24.3491 22.915 24.3491 24.675C24.3491 26.435 24.0191 27.79 23.3591 28.74C22.6991 29.68 21.7441 30.15 20.4941 30.15ZM20.4941 28.575C21.1741 28.575 21.6741 28.26 21.9941 27.63C22.3241 27 22.4891 26.015 22.4891 24.675C22.4891 23.335 22.3241 22.365 21.9941 21.765C21.6741 21.155 21.1741 20.85 20.4941 20.85C19.8241 20.85 19.3241 21.155 18.9941 21.765C18.6641 22.365 18.4991 23.335 18.4991 24.675C18.4991 26.015 18.6641 27 18.9941 27.63C19.3241 28.26 19.8241 28.575 20.4941 28.575ZM29.4883 30.15C28.2383 30.15 27.2833 29.68 26.6233 28.74C25.9633 27.79 25.6333 26.44 25.6333 24.69C25.6333 22.92 25.9633 21.575 26.6233 20.655C27.2833 19.735 28.2383 19.275 29.4883 19.275C30.7483 19.275 31.7033 19.735 32.3533 20.655C33.0133 21.575 33.3433 22.915 33.3433 24.675C33.3433 26.435 33.0133 27.79 32.3533 28.74C31.6933 29.68 30.7383 30.15 29.4883 30.15ZM29.4883 28.575C30.1683 28.575 30.6683 28.26 30.9883 27.63C31.3183 27 31.4833 26.015 31.4833 24.675C31.4833 23.335 31.3183 22.365 30.9883 21.765C30.6683 21.155 30.1683 20.85 29.4883 20.85C28.8183 20.85 28.3183 21.155 27.9883 21.765C27.6583 22.365 27.4933 23.335 27.4933 24.675C27.4933 26.015 27.6583 27 27.9883 27.63C28.3183 28.26 28.8183 28.575 29.4883 28.575ZM38.4824 29.52C38.0224 29.52 37.7924 29.285 37.7924 28.815V26.355H35.3774C34.9274 26.355 34.7024 26.135 34.7024 25.695C34.7024 25.255 34.9274 25.035 35.3774 25.035H37.7924V22.65C37.7924 22.19 38.0224 21.96 38.4824 21.96C38.9424 21.96 39.1724 22.19 39.1724 22.65V25.035H41.5874C42.0374 25.035 42.2624 25.255 42.2624 25.695C42.2624 26.135 42.0374 26.355 41.5874 26.355H39.1724V28.815C39.1724 29.285 38.9424 29.52 38.4824 29.52Z" fill="#212529"/>
<path d="M62.256 20.128C61.5733 20.128 61.232 19.776 61.232 19.072V9.648C61.232 8.944 61.5733 8.592 62.256 8.592C62.9387 8.592 63.28 8.944 63.28 9.648V13.424H69.088V9.648C69.088 8.944 69.4293 8.592 70.112 8.592C70.7947 8.592 71.136 8.944 71.136 9.648V19.072C71.136 19.776 70.7947 20.128 70.112 20.128C69.4293 20.128 69.088 19.776 69.088 19.072V15.136H63.28V19.072C63.28 19.776 62.9387 20.128 62.256 20.128ZM75.991 20.16C75.4257 20.16 74.919 20.0533 74.471 19.84C74.0337 19.616 73.687 19.3173 73.431 18.944C73.1857 18.5707 73.063 18.1493 73.063 17.68C73.063 17.104 73.2123 16.6507 73.511 16.32C73.8097 15.9787 74.295 15.7333 74.967 15.584C75.639 15.4347 76.5403 15.36 77.671 15.36H78.231V15.024C78.231 14.4907 78.1137 14.1067 77.879 13.872C77.6443 13.6373 77.2497 13.52 76.695 13.52C76.3857 13.52 76.0497 13.5573 75.687 13.632C75.335 13.7067 74.9617 13.8347 74.567 14.016C74.311 14.1333 74.0977 14.1493 73.927 14.064C73.7563 13.968 73.639 13.824 73.575 13.632C73.5217 13.4293 73.5323 13.2267 73.607 13.024C73.6923 12.8213 73.8577 12.672 74.103 12.576C74.5937 12.3733 75.063 12.2293 75.511 12.144C75.9697 12.0587 76.3857 12.016 76.759 12.016C77.9003 12.016 78.7483 12.2827 79.303 12.816C79.8577 13.3387 80.135 14.1547 80.135 15.264V19.104C80.135 19.7867 79.8257 20.128 79.207 20.128C78.5777 20.128 78.263 19.7867 78.263 19.104V18.752C78.0817 19.1893 77.7937 19.536 77.399 19.792C77.0043 20.0373 76.535 20.16 75.991 20.16ZM76.407 18.784C76.9297 18.784 77.3617 18.6027 77.703 18.24C78.055 17.8773 78.231 17.4187 78.231 16.864V16.512H77.687C76.6843 16.512 75.9857 16.592 75.591 16.752C75.207 16.9013 75.015 17.1787 75.015 17.584C75.015 17.936 75.1377 18.224 75.383 18.448C75.6283 18.672 75.9697 18.784 76.407 18.784ZM83.157 23.008C82.4957 23.008 82.165 22.672 82.165 22V13.056C82.165 12.384 82.4903 12.048 83.141 12.048C83.8023 12.048 84.133 12.384 84.133 13.056V13.392C84.357 12.976 84.693 12.6453 85.141 12.4C85.589 12.144 86.101 12.016 86.677 12.016C87.3597 12.016 87.957 12.1813 88.469 12.512C88.9917 12.8427 89.397 13.312 89.685 13.92C89.973 14.5173 90.117 15.2373 90.117 16.08C90.117 16.912 89.973 17.6373 89.685 18.256C89.397 18.864 88.997 19.3333 88.485 19.664C87.973 19.9947 87.3703 20.16 86.677 20.16C86.1223 20.16 85.621 20.0427 85.173 19.808C84.7357 19.5627 84.3997 19.2373 84.165 18.832V22C84.165 22.672 83.829 23.008 83.157 23.008ZM86.117 18.64C86.7143 18.64 87.1943 18.4267 87.557 18C87.9197 17.5627 88.101 16.9227 88.101 16.08C88.101 15.2267 87.9197 14.592 87.557 14.176C87.1943 13.7493 86.7143 13.536 86.117 13.536C85.5197 13.536 85.0397 13.7493 84.677 14.176C84.3143 14.592 84.133 15.2267 84.133 16.08C84.133 16.9227 84.3143 17.5627 84.677 18C85.0397 18.4267 85.5197 18.64 86.117 18.64ZM92.7508 23.008C92.0894 23.008 91.7588 22.672 91.7588 22V13.056C91.7588 12.384 92.0841 12.048 92.7348 12.048C93.3961 12.048 93.7268 12.384 93.7268 13.056V13.392C93.9508 12.976 94.2868 12.6453 94.7348 12.4C95.1828 12.144 95.6948 12.016 96.2708 12.016C96.9534 12.016 97.5508 12.1813 98.0628 12.512C98.5854 12.8427 98.9908 13.312 99.2788 13.92C99.5668 14.5173 99.7108 15.2373 99.7108 16.08C99.7108 16.912 99.5668 17.6373 99.2788 18.256C98.9908 18.864 98.5908 19.3333 98.0788 19.664C97.5668 19.9947 96.9641 20.16 96.2708 20.16C95.7161 20.16 95.2148 20.0427 94.7668 19.808C94.3294 19.5627 93.9934 19.2373 93.7588 18.832V22C93.7588 22.672 93.4228 23.008 92.7508 23.008ZM95.7108 18.64C96.3081 18.64 96.7881 18.4267 97.1508 18C97.5134 17.5627 97.6948 16.9227 97.6948 16.08C97.6948 15.2267 97.5134 14.592 97.1508 14.176C96.7881 13.7493 96.3081 13.536 95.7108 13.536C95.1134 13.536 94.6334 13.7493 94.2708 14.176C93.9081 14.592 93.7268 15.2267 93.7268 16.08C93.7268 16.9227 93.9081 17.5627 94.2708 18C94.6334 18.4267 95.1134 18.64 95.7108 18.64ZM103.18 23.008C102.818 23.008 102.567 22.8747 102.428 22.608C102.29 22.3413 102.295 22.0373 102.444 21.696L103.356 19.68L100.62 13.376C100.471 13.024 100.471 12.7147 100.62 12.448C100.77 12.1813 101.063 12.048 101.5 12.048C101.746 12.048 101.943 12.1067 102.092 12.224C102.242 12.3307 102.375 12.5387 102.492 12.848L104.412 17.648L106.38 12.832C106.498 12.5333 106.636 12.3307 106.796 12.224C106.956 12.1067 107.17 12.048 107.436 12.048C107.778 12.048 108.018 12.1813 108.156 12.448C108.295 12.7147 108.29 13.0187 108.14 13.36L104.252 22.24C104.114 22.5387 103.964 22.7413 103.804 22.848C103.644 22.9547 103.436 23.008 103.18 23.008ZM66.48 40.16C65.3067 40.16 64.2987 39.9253 63.456 39.456C62.624 38.976 61.984 38.304 61.536 37.44C61.088 36.5653 60.864 35.536 60.864 34.352C60.864 33.168 61.088 32.144 61.536 31.28C61.984 30.416 62.624 29.7493 63.456 29.28C64.2987 28.8 65.3067 28.56 66.48 28.56C67.0667 28.56 67.6427 28.6347 68.208 28.784C68.7733 28.9333 69.2693 29.1467 69.696 29.424C69.9733 29.6053 70.1387 29.824 70.192 30.08C70.2453 30.3253 70.2133 30.5547 70.096 30.768C69.9787 30.9707 69.8027 31.1093 69.568 31.184C69.3333 31.248 69.072 31.184 68.784 30.992C68.4533 30.7787 68.096 30.624 67.712 30.528C67.328 30.432 66.9387 30.384 66.544 30.384C65.4027 30.384 64.5333 30.7307 63.936 31.424C63.3387 32.1067 63.04 33.0827 63.04 34.352C63.04 35.6213 63.3387 36.6027 63.936 37.296C64.5333 37.9893 65.4027 38.336 66.544 38.336C66.9493 38.336 67.3493 38.288 67.744 38.192C68.1387 38.0853 68.512 37.9253 68.864 37.712C69.152 37.5307 69.408 37.472 69.632 37.536C69.856 37.6 70.0213 37.7333 70.128 37.936C70.2453 38.128 70.2827 38.3413 70.24 38.576C70.1973 38.8107 70.0533 39.0187 69.808 39.2C69.3813 39.5093 68.8693 39.7493 68.272 39.92C67.6853 40.08 67.088 40.16 66.48 40.16ZM74.5439 40.16C72.6239 40.16 71.6639 39.0827 71.6639 36.928V33.056C71.6639 32.384 71.9945 32.048 72.6559 32.048C73.3279 32.048 73.6639 32.384 73.6639 33.056V36.96C73.6639 37.5147 73.7759 37.9253 73.9999 38.192C74.2239 38.4587 74.5812 38.592 75.0719 38.592C75.6052 38.592 76.0425 38.4107 76.3839 38.048C76.7252 37.6747 76.8959 37.184 76.8959 36.576V33.056C76.8959 32.384 77.2265 32.048 77.8879 32.048C78.5599 32.048 78.8959 32.384 78.8959 33.056V39.104C78.8959 39.7867 78.5705 40.128 77.9199 40.128C77.2692 40.128 76.9439 39.7867 76.9439 39.104V38.832C76.4212 39.7173 75.6212 40.16 74.5439 40.16ZM83.8415 40.16C83.3828 40.16 82.8975 40.112 82.3855 40.016C81.8735 39.92 81.4148 39.7547 81.0095 39.52C80.7855 39.392 80.6468 39.2373 80.5935 39.056C80.5402 38.864 80.5455 38.688 80.6095 38.528C80.6842 38.3573 80.8015 38.2347 80.9615 38.16C81.1322 38.0853 81.3295 38.1013 81.5535 38.208C81.9802 38.4107 82.3802 38.5547 82.7535 38.64C83.1268 38.7147 83.4948 38.752 83.8575 38.752C84.3695 38.752 84.7482 38.6667 84.9935 38.496C85.2495 38.3147 85.3775 38.08 85.3775 37.792C85.3775 37.344 85.0468 37.056 84.3855 36.928L82.7855 36.624C81.4308 36.368 80.7535 35.664 80.7535 34.512C80.7535 34 80.8922 33.5573 81.1695 33.184C81.4575 32.8107 81.8522 32.5227 82.3535 32.32C82.8548 32.1173 83.4308 32.016 84.0815 32.016C85.0202 32.016 85.8575 32.224 86.5935 32.64C86.7962 32.7467 86.9135 32.896 86.9455 33.088C86.9882 33.2693 86.9668 33.4453 86.8815 33.616C86.8068 33.776 86.6842 33.8933 86.5135 33.968C86.3428 34.032 86.1455 34.0107 85.9215 33.904C85.5908 33.7333 85.2708 33.6107 84.9615 33.536C84.6628 33.4613 84.3748 33.424 84.0975 33.424C83.5748 33.424 83.1855 33.5147 82.9295 33.696C82.6842 33.8773 82.5615 34.1173 82.5615 34.416C82.5615 34.8853 82.8655 35.1733 83.4735 35.28L85.0735 35.584C85.7668 35.712 86.2895 35.9467 86.6415 36.288C87.0042 36.6293 87.1855 37.088 87.1855 37.664C87.1855 38.4427 86.8815 39.056 86.2735 39.504C85.6655 39.9413 84.8548 40.16 83.8415 40.16ZM92.2959 40.16C90.2265 40.16 89.1919 39.136 89.1919 37.088V33.68H88.3599C87.8265 33.68 87.5599 33.4293 87.5599 32.928C87.5599 32.4267 87.8265 32.176 88.3599 32.176H89.1919V30.72C89.1919 30.048 89.5279 29.712 90.1999 29.712C90.8612 29.712 91.1919 30.048 91.1919 30.72V32.176H92.8879C93.4212 32.176 93.6879 32.4267 93.6879 32.928C93.6879 33.4293 93.4212 33.68 92.8879 33.68H91.1919V36.976C91.1919 37.488 91.3039 37.872 91.5279 38.128C91.7519 38.384 92.1145 38.512 92.6159 38.512C92.7972 38.512 92.9572 38.496 93.0959 38.464C93.2345 38.432 93.3572 38.4107 93.4639 38.4C93.5919 38.3893 93.6985 38.432 93.7839 38.528C93.8692 38.6133 93.9119 38.7947 93.9119 39.072C93.9119 39.2853 93.8745 39.4773 93.7999 39.648C93.7359 39.808 93.6132 39.92 93.4319 39.984C93.2932 40.0267 93.1119 40.064 92.8879 40.096C92.6639 40.1387 92.4665 40.16 92.2959 40.16ZM98.3424 40.16C97.5317 40.16 96.8277 39.9947 96.2304 39.664C95.633 39.3333 95.169 38.864 94.8384 38.256C94.5077 37.6373 94.3424 36.912 94.3424 36.08C94.3424 35.248 94.5077 34.528 94.8384 33.92C95.169 33.312 95.633 32.8427 96.2304 32.512C96.8277 32.1813 97.5317 32.016 98.3424 32.016C99.153 32.016 99.857 32.1813 100.454 32.512C101.052 32.8427 101.516 33.312 101.846 33.92C102.177 34.528 102.342 35.248 102.342 36.08C102.342 36.912 102.177 37.6373 101.846 38.256C101.516 38.864 101.052 39.3333 100.454 39.664C99.857 39.9947 99.153 40.16 98.3424 40.16ZM98.3424 38.64C98.9397 38.64 99.4197 38.4267 99.7824 38C100.145 37.5627 100.326 36.9227 100.326 36.08C100.326 35.2267 100.145 34.592 99.7824 34.176C99.4197 33.7493 98.9397 33.536 98.3424 33.536C97.745 33.536 97.265 33.7493 96.9024 34.176C96.5397 34.592 96.3584 35.2267 96.3584 36.08C96.3584 36.9227 96.5397 37.5627 96.9024 38C97.265 38.4267 97.745 38.64 98.3424 38.64ZM105.017 40.128C104.356 40.128 104.025 39.7867 104.025 39.104V33.056C104.025 32.384 104.35 32.048 105.001 32.048C105.652 32.048 105.977 32.384 105.977 33.056V33.376C106.212 32.9493 106.537 32.6187 106.953 32.384C107.369 32.1387 107.849 32.016 108.393 32.016C109.566 32.016 110.334 32.528 110.697 33.552C110.942 33.072 111.294 32.6987 111.753 32.432C112.212 32.1547 112.734 32.016 113.321 32.016C115.081 32.016 115.961 33.088 115.961 35.232V39.104C115.961 39.7867 115.625 40.128 114.953 40.128C114.292 40.128 113.961 39.7867 113.961 39.104V35.312C113.961 34.7147 113.86 34.2773 113.657 34C113.465 33.7227 113.134 33.584 112.665 33.584C112.142 33.584 111.732 33.7707 111.433 34.144C111.134 34.5067 110.985 35.0133 110.985 35.664V39.104C110.985 39.7867 110.654 40.128 109.993 40.128C109.321 40.128 108.985 39.7867 108.985 39.104V35.312C108.985 34.7147 108.884 34.2773 108.681 34C108.489 33.7227 108.164 33.584 107.705 33.584C107.182 33.584 106.772 33.7707 106.473 34.144C106.174 34.5067 106.025 35.0133 106.025 35.664V39.104C106.025 39.7867 105.689 40.128 105.017 40.128ZM119.048 40.128C118.366 40.128 118.024 39.7867 118.024 39.104V33.056C118.024 32.384 118.35 32.048 119 32.048C119.651 32.048 119.976 32.384 119.976 33.056V33.552C120.36 32.6347 121.182 32.1227 122.44 32.016C122.899 31.9627 123.155 32.224 123.208 32.8C123.262 33.3653 122.984 33.68 122.376 33.744L122.024 33.776C120.712 33.904 120.056 34.576 120.056 35.792V39.104C120.056 39.7867 119.72 40.128 119.048 40.128ZM127.076 40.16C126.617 40.16 126.132 40.112 125.62 40.016C125.108 39.92 124.649 39.7547 124.244 39.52C124.02 39.392 123.881 39.2373 123.828 39.056C123.775 38.864 123.78 38.688 123.844 38.528C123.919 38.3573 124.036 38.2347 124.196 38.16C124.367 38.0853 124.564 38.1013 124.788 38.208C125.215 38.4107 125.615 38.5547 125.988 38.64C126.361 38.7147 126.729 38.752 127.092 38.752C127.604 38.752 127.983 38.6667 128.228 38.496C128.484 38.3147 128.612 38.08 128.612 37.792C128.612 37.344 128.281 37.056 127.62 36.928L126.02 36.624C124.665 36.368 123.988 35.664 123.988 34.512C123.988 34 124.127 33.5573 124.404 33.184C124.692 32.8107 125.087 32.5227 125.588 32.32C126.089 32.1173 126.665 32.016 127.316 32.016C128.255 32.016 129.092 32.224 129.828 32.64C130.031 32.7467 130.148 32.896 130.18 33.088C130.223 33.2693 130.201 33.4453 130.116 33.616C130.041 33.776 129.919 33.8933 129.748 33.968C129.577 34.032 129.38 34.0107 129.156 33.904C128.825 33.7333 128.505 33.6107 128.196 33.536C127.897 33.4613 127.609 33.424 127.332 33.424C126.809 33.424 126.42 33.5147 126.164 33.696C125.919 33.8773 125.796 34.1173 125.796 34.416C125.796 34.8853 126.1 35.1733 126.708 35.28L128.308 35.584C129.001 35.712 129.524 35.9467 129.876 36.288C130.239 36.6293 130.42 37.088 130.42 37.664C130.42 38.4427 130.116 39.056 129.508 39.504C128.9 39.9413 128.089 40.16 127.076 40.16Z" fill="#212529"/>
<rect x="159" width="50" height="50" rx="25" fill="url(#paint1_linear_486_3952)"/>
<path d="M170.5 30.15C169.27 30.15 168.305 29.885 167.605 29.355C166.915 28.825 166.57 28.09 166.57 27.15C166.57 26.51 166.735 25.965 167.065 25.515C167.405 25.065 167.845 24.75 168.385 24.57C167.905 24.36 167.525 24.04 167.245 23.61C166.975 23.18 166.84 22.685 166.84 22.125C166.84 21.235 167.17 20.54 167.83 20.04C168.49 19.53 169.38 19.275 170.5 19.275C171.63 19.275 172.525 19.53 173.185 20.04C173.845 20.54 174.175 21.235 174.175 22.125C174.175 22.685 174.035 23.185 173.755 23.625C173.485 24.055 173.115 24.37 172.645 24.57C173.185 24.75 173.615 25.07 173.935 25.53C174.265 25.98 174.43 26.52 174.43 27.15C174.43 28.09 174.08 28.825 173.38 29.355C172.69 29.885 171.73 30.15 170.5 30.15ZM170.5 23.895C171.09 23.895 171.55 23.755 171.88 23.475C172.22 23.195 172.39 22.81 172.39 22.32C172.39 21.84 172.22 21.465 171.88 21.195C171.55 20.915 171.09 20.775 170.5 20.775C169.91 20.775 169.45 20.915 169.12 21.195C168.79 21.465 168.625 21.84 168.625 22.32C168.625 22.81 168.79 23.195 169.12 23.475C169.45 23.755 169.91 23.895 170.5 23.895ZM170.5 28.65C171.93 28.65 172.645 28.105 172.645 27.015C172.645 25.935 171.93 25.395 170.5 25.395C169.8 25.395 169.265 25.53 168.895 25.8C168.535 26.07 168.355 26.475 168.355 27.015C168.355 27.555 168.535 27.965 168.895 28.245C169.265 28.515 169.8 28.65 170.5 28.65ZM179.494 30.15C178.244 30.15 177.289 29.68 176.629 28.74C175.969 27.79 175.639 26.44 175.639 24.69C175.639 22.92 175.969 21.575 176.629 20.655C177.289 19.735 178.244 19.275 179.494 19.275C180.754 19.275 181.709 19.735 182.359 20.655C183.019 21.575 183.349 22.915 183.349 24.675C183.349 26.435 183.019 27.79 182.359 28.74C181.699 29.68 180.744 30.15 179.494 30.15ZM179.494 28.575C180.174 28.575 180.674 28.26 180.994 27.63C181.324 27 181.489 26.015 181.489 24.675C181.489 23.335 181.324 22.365 180.994 21.765C180.674 21.155 180.174 20.85 179.494 20.85C178.824 20.85 178.324 21.155 177.994 21.765C177.664 22.365 177.499 23.335 177.499 24.675C177.499 26.015 177.664 27 177.994 27.63C178.324 28.26 178.824 28.575 179.494 28.575ZM188.488 30.15C187.238 30.15 186.283 29.68 185.623 28.74C184.963 27.79 184.633 26.44 184.633 24.69C184.633 22.92 184.963 21.575 185.623 20.655C186.283 19.735 187.238 19.275 188.488 19.275C189.748 19.275 190.703 19.735 191.353 20.655C192.013 21.575 192.343 22.915 192.343 24.675C192.343 26.435 192.013 27.79 191.353 28.74C190.693 29.68 189.738 30.15 188.488 30.15ZM188.488 28.575C189.168 28.575 189.668 28.26 189.988 27.63C190.318 27 190.483 26.015 190.483 24.675C190.483 23.335 190.318 22.365 189.988 21.765C189.668 21.155 189.168 20.85 188.488 20.85C187.818 20.85 187.318 21.155 186.988 21.765C186.658 22.365 186.493 23.335 186.493 24.675C186.493 26.015 186.658 27 186.988 27.63C187.318 28.26 187.818 28.575 188.488 28.575ZM197.482 29.52C197.022 29.52 196.792 29.285 196.792 28.815V26.355H194.377C193.927 26.355 193.702 26.135 193.702 25.695C193.702 25.255 193.927 25.035 194.377 25.035H196.792V22.65C196.792 22.19 197.022 21.96 197.482 21.96C197.942 21.96 198.172 22.19 198.172 22.65V25.035H200.587C201.037 25.035 201.262 25.255 201.262 25.695C201.262 26.135 201.037 26.355 200.587 26.355H198.172V28.815C198.172 29.285 197.942 29.52 197.482 29.52Z" fill="#212529"/>
<path d="M225.656 20.16C224.408 20.16 223.352 19.9253 222.488 19.456C221.635 18.9867 220.984 18.32 220.536 17.456C220.088 16.592 219.864 15.568 219.864 14.384C219.864 13.1893 220.093 12.16 220.552 11.296C221.011 10.4213 221.672 9.74933 222.536 9.28C223.4 8.8 224.435 8.56 225.64 8.56C226.237 8.56 226.835 8.63467 227.432 8.784C228.04 8.92267 228.611 9.16267 229.144 9.504C229.379 9.64267 229.512 9.82933 229.544 10.064C229.587 10.288 229.555 10.5013 229.448 10.704C229.341 10.9067 229.181 11.0507 228.968 11.136C228.755 11.2107 228.52 11.1733 228.264 11.024C227.859 10.7893 227.448 10.6187 227.032 10.512C226.616 10.4053 226.152 10.352 225.64 10.352C224.445 10.352 223.539 10.6987 222.92 11.392C222.312 12.0853 222.008 13.0827 222.008 14.384C222.008 15.696 222.323 16.6933 222.952 17.376C223.581 18.0587 224.515 18.4 225.752 18.4C226.104 18.4 226.461 18.3733 226.824 18.32C227.197 18.256 227.565 18.1653 227.928 18.048V15.424H226.168C225.613 15.424 225.336 15.168 225.336 14.656C225.336 14.1547 225.613 13.904 226.168 13.904H228.808C229.363 13.904 229.64 14.1813 229.64 14.736V18.624C229.64 19.1147 229.448 19.4293 229.064 19.568C228.595 19.7387 228.056 19.8827 227.448 20C226.84 20.1067 226.243 20.16 225.656 20.16ZM234.397 20.16C233.832 20.16 233.325 20.0533 232.877 19.84C232.44 19.616 232.093 19.3173 231.837 18.944C231.592 18.5707 231.469 18.1493 231.469 17.68C231.469 17.104 231.619 16.6507 231.917 16.32C232.216 15.9787 232.701 15.7333 233.373 15.584C234.045 15.4347 234.947 15.36 236.077 15.36H236.637V15.024C236.637 14.4907 236.52 14.1067 236.285 13.872C236.051 13.6373 235.656 13.52 235.101 13.52C234.792 13.52 234.456 13.5573 234.093 13.632C233.741 13.7067 233.368 13.8347 232.973 14.016C232.717 14.1333 232.504 14.1493 232.333 14.064C232.163 13.968 232.045 13.824 231.981 13.632C231.928 13.4293 231.939 13.2267 232.013 13.024C232.099 12.8213 232.264 12.672 232.509 12.576C233 12.3733 233.469 12.2293 233.917 12.144C234.376 12.0587 234.792 12.016 235.165 12.016C236.307 12.016 237.155 12.2827 237.709 12.816C238.264 13.3387 238.541 14.1547 238.541 15.264V19.104C238.541 19.7867 238.232 20.128 237.613 20.128C236.984 20.128 236.669 19.7867 236.669 19.104V18.752C236.488 19.1893 236.2 19.536 235.805 19.792C235.411 20.0373 234.941 20.16 234.397 20.16ZM234.813 18.784C235.336 18.784 235.768 18.6027 236.109 18.24C236.461 17.8773 236.637 17.4187 236.637 16.864V16.512H236.093C235.091 16.512 234.392 16.592 233.997 16.752C233.613 16.9013 233.421 17.1787 233.421 17.584C233.421 17.936 233.544 18.224 233.789 18.448C234.035 18.672 234.376 18.784 234.813 18.784ZM241.595 20.128C240.913 20.128 240.571 19.7867 240.571 19.104V13.056C240.571 12.384 240.897 12.048 241.547 12.048C242.198 12.048 242.523 12.384 242.523 13.056V13.552C242.907 12.6347 243.729 12.1227 244.987 12.016C245.446 11.9627 245.702 12.224 245.755 12.8C245.809 13.3653 245.531 13.68 244.923 13.744L244.571 13.776C243.259 13.904 242.603 14.576 242.603 15.792V19.104C242.603 19.7867 242.267 20.128 241.595 20.128ZM249.72 20.16C249.037 20.16 248.435 19.9947 247.912 19.664C247.4 19.3333 247 18.864 246.712 18.256C246.424 17.6373 246.28 16.912 246.28 16.08C246.28 15.2373 246.424 14.5173 246.712 13.92C247 13.312 247.4 12.8427 247.912 12.512C248.435 12.1813 249.037 12.016 249.72 12.016C250.275 12.016 250.776 12.1387 251.224 12.384C251.672 12.6293 252.008 12.9547 252.232 13.36V9.6C252.232 8.928 252.563 8.592 253.224 8.592C253.896 8.592 254.232 8.928 254.232 9.6V19.104C254.232 19.7867 253.901 20.128 253.24 20.128C252.579 20.128 252.248 19.7867 252.248 19.104V18.768C252.024 19.1947 251.688 19.536 251.24 19.792C250.792 20.0373 250.285 20.16 249.72 20.16ZM250.28 18.64C250.877 18.64 251.357 18.4267 251.72 18C252.083 17.5627 252.264 16.9227 252.264 16.08C252.264 15.2267 252.083 14.592 251.72 14.176C251.357 13.7493 250.877 13.536 250.28 13.536C249.683 13.536 249.203 13.7493 248.84 14.176C248.477 14.592 248.296 15.2267 248.296 16.08C248.296 16.9227 248.477 17.5627 248.84 18C249.203 18.4267 249.683 18.64 250.28 18.64ZM260.162 20.16C259.276 20.16 258.514 19.9947 257.874 19.664C257.234 19.3333 256.738 18.864 256.386 18.256C256.044 17.648 255.874 16.928 255.874 16.096C255.874 15.2853 256.039 14.576 256.37 13.968C256.711 13.36 257.175 12.8853 257.762 12.544C258.359 12.192 259.036 12.016 259.794 12.016C260.903 12.016 261.778 12.368 262.418 13.072C263.068 13.776 263.394 14.736 263.394 15.952C263.394 16.3467 263.138 16.544 262.626 16.544H257.794C257.943 17.9413 258.743 18.64 260.194 18.64C260.471 18.64 260.78 18.608 261.122 18.544C261.474 18.4693 261.804 18.3467 262.114 18.176C262.391 18.016 262.626 17.968 262.818 18.032C263.01 18.0853 263.143 18.1973 263.218 18.368C263.303 18.5387 263.314 18.7307 263.25 18.944C263.196 19.1467 263.047 19.3227 262.802 19.472C262.428 19.7067 261.996 19.8827 261.506 20C261.026 20.1067 260.578 20.16 260.162 20.16ZM259.874 13.376C259.287 13.376 258.812 13.5573 258.45 13.92C258.087 14.2827 257.868 14.7733 257.794 15.392H261.73C261.687 14.7413 261.506 14.2453 261.186 13.904C260.876 13.552 260.439 13.376 259.874 13.376ZM265.97 20.128C265.308 20.128 264.978 19.7867 264.978 19.104V13.056C264.978 12.384 265.303 12.048 265.954 12.048C266.604 12.048 266.93 12.384 266.93 13.056V13.392C267.196 12.944 267.554 12.6027 268.002 12.368C268.46 12.1333 268.972 12.016 269.538 12.016C271.383 12.016 272.306 13.088 272.306 15.232V19.104C272.306 19.7867 271.975 20.128 271.314 20.128C270.642 20.128 270.306 19.7867 270.306 19.104V15.328C270.306 14.72 270.188 14.2773 269.954 14C269.73 13.7227 269.378 13.584 268.898 13.584C268.311 13.584 267.842 13.7707 267.49 14.144C267.148 14.5067 266.978 14.992 266.978 15.6V19.104C266.978 19.7867 266.642 20.128 265.97 20.128ZM225.48 40.16C224.307 40.16 223.299 39.9253 222.456 39.456C221.624 38.976 220.984 38.304 220.536 37.44C220.088 36.5653 219.864 35.536 219.864 34.352C219.864 33.168 220.088 32.144 220.536 31.28C220.984 30.416 221.624 29.7493 222.456 29.28C223.299 28.8 224.307 28.56 225.48 28.56C226.067 28.56 226.643 28.6347 227.208 28.784C227.773 28.9333 228.269 29.1467 228.696 29.424C228.973 29.6053 229.139 29.824 229.192 30.08C229.245 30.3253 229.213 30.5547 229.096 30.768C228.979 30.9707 228.803 31.1093 228.568 31.184C228.333 31.248 228.072 31.184 227.784 30.992C227.453 30.7787 227.096 30.624 226.712 30.528C226.328 30.432 225.939 30.384 225.544 30.384C224.403 30.384 223.533 30.7307 222.936 31.424C222.339 32.1067 222.04 33.0827 222.04 34.352C222.04 35.6213 222.339 36.6027 222.936 37.296C223.533 37.9893 224.403 38.336 225.544 38.336C225.949 38.336 226.349 38.288 226.744 38.192C227.139 38.0853 227.512 37.9253 227.864 37.712C228.152 37.5307 228.408 37.472 228.632 37.536C228.856 37.6 229.021 37.7333 229.128 37.936C229.245 38.128 229.283 38.3413 229.24 38.576C229.197 38.8107 229.053 39.0187 228.808 39.2C228.381 39.5093 227.869 39.7493 227.272 39.92C226.685 40.08 226.088 40.16 225.48 40.16ZM231.939 40.128C231.256 40.128 230.915 39.7867 230.915 39.104V33.056C230.915 32.384 231.24 32.048 231.891 32.048C232.542 32.048 232.867 32.384 232.867 33.056V33.552C233.251 32.6347 234.072 32.1227 235.331 32.016C235.79 31.9627 236.046 32.224 236.099 32.8C236.152 33.3653 235.875 33.68 235.267 33.744L234.915 33.776C233.603 33.904 232.947 34.576 232.947 35.792V39.104C232.947 39.7867 232.611 40.128 231.939 40.128ZM240.912 40.16C240.026 40.16 239.264 39.9947 238.624 39.664C237.984 39.3333 237.488 38.864 237.136 38.256C236.794 37.648 236.624 36.928 236.624 36.096C236.624 35.2853 236.789 34.576 237.12 33.968C237.461 33.36 237.925 32.8853 238.512 32.544C239.109 32.192 239.786 32.016 240.544 32.016C241.653 32.016 242.528 32.368 243.168 33.072C243.818 33.776 244.144 34.736 244.144 35.952C244.144 36.3467 243.888 36.544 243.376 36.544H238.544C238.693 37.9413 239.493 38.64 240.944 38.64C241.221 38.64 241.53 38.608 241.872 38.544C242.224 38.4693 242.554 38.3467 242.864 38.176C243.141 38.016 243.376 37.968 243.568 38.032C243.76 38.0853 243.893 38.1973 243.968 38.368C244.053 38.5387 244.064 38.7307 244 38.944C243.946 39.1467 243.797 39.3227 243.552 39.472C243.178 39.7067 242.746 39.8827 242.256 40C241.776 40.1067 241.328 40.16 240.912 40.16ZM240.624 33.376C240.037 33.376 239.562 33.5573 239.2 33.92C238.837 34.2827 238.618 34.7733 238.544 35.392H242.48C242.437 34.7413 242.256 34.2453 241.936 33.904C241.626 33.552 241.189 33.376 240.624 33.376ZM248.304 40.16C247.738 40.16 247.232 40.0533 246.784 39.84C246.346 39.616 246 39.3173 245.743 38.944C245.498 38.5707 245.376 38.1493 245.376 37.68C245.376 37.104 245.525 36.6507 245.824 36.32C246.122 35.9787 246.608 35.7333 247.28 35.584C247.952 35.4347 248.853 35.36 249.984 35.36H250.544V35.024C250.544 34.4907 250.426 34.1067 250.192 33.872C249.957 33.6373 249.562 33.52 249.008 33.52C248.698 33.52 248.362 33.5573 248 33.632C247.648 33.7067 247.274 33.8347 246.88 34.016C246.624 34.1333 246.41 34.1493 246.24 34.064C246.069 33.968 245.952 33.824 245.888 33.632C245.834 33.4293 245.845 33.2267 245.92 33.024C246.005 32.8213 246.17 32.672 246.416 32.576C246.906 32.3733 247.376 32.2293 247.824 32.144C248.282 32.0587 248.698 32.016 249.072 32.016C250.213 32.016 251.061 32.2827 251.616 32.816C252.17 33.3387 252.448 34.1547 252.448 35.264V39.104C252.448 39.7867 252.138 40.128 251.52 40.128C250.89 40.128 250.576 39.7867 250.576 39.104V38.752C250.394 39.1893 250.106 39.536 249.712 39.792C249.317 40.0373 248.848 40.16 248.304 40.16ZM248.72 38.784C249.242 38.784 249.674 38.6027 250.016 38.24C250.368 37.8773 250.544 37.4187 250.544 36.864V36.512H250C248.997 36.512 248.298 36.592 247.904 36.752C247.52 36.9013 247.328 37.1787 247.328 37.584C247.328 37.936 247.45 38.224 247.696 38.448C247.941 38.672 248.282 38.784 248.72 38.784ZM258.062 40.16C255.992 40.16 254.958 39.136 254.958 37.088V33.68H254.126C253.592 33.68 253.325 33.4293 253.325 32.928C253.325 32.4267 253.592 32.176 254.126 32.176H254.958V30.72C254.958 30.048 255.294 29.712 255.966 29.712C256.627 29.712 256.958 30.048 256.958 30.72V32.176H258.654C259.187 32.176 259.454 32.4267 259.454 32.928C259.454 33.4293 259.187 33.68 258.654 33.68H256.958V36.976C256.958 37.488 257.07 37.872 257.294 38.128C257.518 38.384 257.88 38.512 258.382 38.512C258.563 38.512 258.723 38.496 258.862 38.464C259 38.432 259.123 38.4107 259.23 38.4C259.358 38.3893 259.464 38.432 259.55 38.528C259.635 38.6133 259.678 38.7947 259.678 39.072C259.678 39.2853 259.64 39.4773 259.566 39.648C259.502 39.808 259.379 39.92 259.198 39.984C259.059 40.0267 258.878 40.064 258.654 40.096C258.43 40.1387 258.232 40.16 258.062 40.16ZM264.396 40.16C263.511 40.16 262.748 39.9947 262.108 39.664C261.468 39.3333 260.972 38.864 260.62 38.256C260.279 37.648 260.108 36.928 260.108 36.096C260.108 35.2853 260.273 34.576 260.604 33.968C260.945 33.36 261.409 32.8853 261.996 32.544C262.593 32.192 263.271 32.016 264.028 32.016C265.137 32.016 266.012 32.368 266.652 33.072C267.303 33.776 267.628 34.736 267.628 35.952C267.628 36.3467 267.372 36.544 266.86 36.544H262.028C262.177 37.9413 262.977 38.64 264.428 38.64C264.705 38.64 265.015 38.608 265.356 38.544C265.708 38.4693 266.039 38.3467 266.348 38.176C266.625 38.016 266.86 37.968 267.052 38.032C267.244 38.0853 267.377 38.1973 267.452 38.368C267.537 38.5387 267.548 38.7307 267.484 38.944C267.431 39.1467 267.281 39.3227 267.036 39.472C266.663 39.7067 266.231 39.8827 265.74 40C265.26 40.1067 264.812 40.16 264.396 40.16ZM264.108 33.376C263.521 33.376 263.047 33.5573 262.684 33.92C262.321 34.2827 262.103 34.7733 262.028 35.392H265.964C265.921 34.7413 265.74 34.2453 265.42 33.904C265.111 33.552 264.673 33.376 264.108 33.376ZM272.22 40.16C271.537 40.16 270.935 39.9947 270.412 39.664C269.9 39.3333 269.5 38.864 269.212 38.256C268.924 37.6373 268.78 36.912 268.78 36.08C268.78 35.2373 268.924 34.5173 269.212 33.92C269.5 33.312 269.9 32.8427 270.412 32.512C270.935 32.1813 271.537 32.016 272.22 32.016C272.775 32.016 273.276 32.1387 273.724 32.384C274.172 32.6293 274.508 32.9547 274.732 33.36V29.6C274.732 28.928 275.063 28.592 275.724 28.592C276.396 28.592 276.732 28.928 276.732 29.6V39.104C276.732 39.7867 276.401 40.128 275.74 40.128C275.079 40.128 274.748 39.7867 274.748 39.104V38.768C274.524 39.1947 274.188 39.536 273.74 39.792C273.292 40.0373 272.785 40.16 272.22 40.16ZM272.78 38.64C273.377 38.64 273.857 38.4267 274.22 38C274.583 37.5627 274.764 36.9227 274.764 36.08C274.764 35.2267 274.583 34.592 274.22 34.176C273.857 33.7493 273.377 33.536 272.78 33.536C272.183 33.536 271.703 33.7493 271.34 34.176C270.977 34.592 270.796 35.2267 270.796 36.08C270.796 36.9227 270.977 37.5627 271.34 38C271.703 38.4267 272.183 38.64 272.78 38.64Z" fill="#212529"/>
<rect x="318" width="50" height="50" rx="25" fill="url(#paint2_linear_486_3952)"/>
<path d="M327.34 30C326.79 30 326.515 29.73 326.515 29.19C326.515 28.67 326.79 28.41 327.34 28.41H329.02V21.615L327.745 22.38C327.505 22.52 327.285 22.555 327.085 22.485C326.895 22.415 326.75 22.29 326.65 22.11C326.55 21.93 326.52 21.735 326.56 21.525C326.6 21.305 326.74 21.125 326.98 20.985L329.05 19.74C329.25 19.62 329.45 19.52 329.65 19.44C329.85 19.35 330.035 19.305 330.205 19.305C330.415 19.305 330.59 19.365 330.73 19.485C330.87 19.595 330.94 19.78 330.94 20.04V28.41H332.47C333.02 28.41 333.295 28.67 333.295 29.19C333.295 29.73 333.02 30 332.47 30H327.34ZM338.494 30.15C337.244 30.15 336.289 29.68 335.629 28.74C334.969 27.79 334.639 26.44 334.639 24.69C334.639 22.92 334.969 21.575 335.629 20.655C336.289 19.735 337.244 19.275 338.494 19.275C339.754 19.275 340.709 19.735 341.359 20.655C342.019 21.575 342.349 22.915 342.349 24.675C342.349 26.435 342.019 27.79 341.359 28.74C340.699 29.68 339.744 30.15 338.494 30.15ZM338.494 28.575C339.174 28.575 339.674 28.26 339.994 27.63C340.324 27 340.489 26.015 340.489 24.675C340.489 23.335 340.324 22.365 339.994 21.765C339.674 21.155 339.174 20.85 338.494 20.85C337.824 20.85 337.324 21.155 336.994 21.765C336.664 22.365 336.499 23.335 336.499 24.675C336.499 26.015 336.664 27 336.994 27.63C337.324 28.26 337.824 28.575 338.494 28.575ZM347.488 30.15C346.238 30.15 345.283 29.68 344.623 28.74C343.963 27.79 343.633 26.44 343.633 24.69C343.633 22.92 343.963 21.575 344.623 20.655C345.283 19.735 346.238 19.275 347.488 19.275C348.748 19.275 349.703 19.735 350.353 20.655C351.013 21.575 351.343 22.915 351.343 24.675C351.343 26.435 351.013 27.79 350.353 28.74C349.693 29.68 348.738 30.15 347.488 30.15ZM347.488 28.575C348.168 28.575 348.668 28.26 348.988 27.63C349.318 27 349.483 26.015 349.483 24.675C349.483 23.335 349.318 22.365 348.988 21.765C348.668 21.155 348.168 20.85 347.488 20.85C346.818 20.85 346.318 21.155 345.988 21.765C345.658 22.365 345.493 23.335 345.493 24.675C345.493 26.015 345.658 27 345.988 27.63C346.318 28.26 346.818 28.575 347.488 28.575ZM356.482 29.52C356.022 29.52 355.792 29.285 355.792 28.815V26.355H353.377C352.927 26.355 352.702 26.135 352.702 25.695C352.702 25.255 352.927 25.035 353.377 25.035H355.792V22.65C355.792 22.19 356.022 21.96 356.482 21.96C356.942 21.96 357.172 22.19 357.172 22.65V25.035H359.587C360.037 25.035 360.262 25.255 360.262 25.695C360.262 26.135 360.037 26.355 359.587 26.355H357.172V28.815C357.172 29.285 356.942 29.52 356.482 29.52Z" fill="#212529"/>
<path d="M382.976 20.128C382.293 20.128 381.952 19.776 381.952 19.072V10.432H378.832C378.245 10.432 377.952 10.144 377.952 9.568C377.952 9.00267 378.245 8.72 378.832 8.72H387.12C387.707 8.72 388 9.00267 388 9.568C388 10.144 387.707 10.432 387.12 10.432H384V19.072C384 19.776 383.659 20.128 382.976 20.128ZM391.584 20.16C390.698 20.16 389.936 19.9947 389.296 19.664C388.656 19.3333 388.16 18.864 387.808 18.256C387.466 17.648 387.296 16.928 387.296 16.096C387.296 15.2853 387.461 14.576 387.792 13.968C388.133 13.36 388.597 12.8853 389.184 12.544C389.781 12.192 390.458 12.016 391.216 12.016C392.325 12.016 393.2 12.368 393.84 13.072C394.49 13.776 394.816 14.736 394.816 15.952C394.816 16.3467 394.56 16.544 394.048 16.544H389.216C389.365 17.9413 390.165 18.64 391.616 18.64C391.893 18.64 392.202 18.608 392.544 18.544C392.896 18.4693 393.226 18.3467 393.536 18.176C393.813 18.016 394.048 17.968 394.24 18.032C394.432 18.0853 394.565 18.1973 394.64 18.368C394.725 18.5387 394.736 18.7307 394.672 18.944C394.618 19.1467 394.469 19.3227 394.224 19.472C393.85 19.7067 393.418 19.8827 392.928 20C392.448 20.1067 392 20.16 391.584 20.16ZM391.296 13.376C390.709 13.376 390.234 13.5573 389.872 13.92C389.509 14.2827 389.29 14.7733 389.216 15.392H393.152C393.109 14.7413 392.928 14.2453 392.608 13.904C392.298 13.552 391.861 13.376 391.296 13.376ZM398.975 20.16C398.41 20.16 397.903 20.0533 397.455 19.84C397.018 19.616 396.671 19.3173 396.415 18.944C396.17 18.5707 396.047 18.1493 396.047 17.68C396.047 17.104 396.197 16.6507 396.495 16.32C396.794 15.9787 397.279 15.7333 397.951 15.584C398.623 15.4347 399.525 15.36 400.655 15.36H401.215V15.024C401.215 14.4907 401.098 14.1067 400.863 13.872C400.629 13.6373 400.234 13.52 399.679 13.52C399.37 13.52 399.034 13.5573 398.671 13.632C398.319 13.7067 397.946 13.8347 397.551 14.016C397.295 14.1333 397.082 14.1493 396.911 14.064C396.741 13.968 396.623 13.824 396.559 13.632C396.506 13.4293 396.517 13.2267 396.591 13.024C396.677 12.8213 396.842 12.672 397.087 12.576C397.578 12.3733 398.047 12.2293 398.495 12.144C398.954 12.0587 399.37 12.016 399.743 12.016C400.885 12.016 401.733 12.2827 402.287 12.816C402.842 13.3387 403.119 14.1547 403.119 15.264V19.104C403.119 19.7867 402.81 20.128 402.191 20.128C401.562 20.128 401.247 19.7867 401.247 19.104V18.752C401.066 19.1893 400.778 19.536 400.383 19.792C399.989 20.0373 399.519 20.16 398.975 20.16ZM399.391 18.784C399.914 18.784 400.346 18.6027 400.687 18.24C401.039 17.8773 401.215 17.4187 401.215 16.864V16.512H400.671C399.669 16.512 398.97 16.592 398.575 16.752C398.191 16.9013 397.999 17.1787 397.999 17.584C397.999 17.936 398.122 18.224 398.367 18.448C398.613 18.672 398.954 18.784 399.391 18.784ZM406.173 20.128C405.512 20.128 405.181 19.7867 405.181 19.104V13.056C405.181 12.384 405.507 12.048 406.157 12.048C406.808 12.048 407.133 12.384 407.133 13.056V13.376C407.368 12.9493 407.693 12.6187 408.109 12.384C408.525 12.1387 409.005 12.016 409.549 12.016C410.723 12.016 411.491 12.528 411.853 13.552C412.099 13.072 412.451 12.6987 412.909 12.432C413.368 12.1547 413.891 12.016 414.477 12.016C416.237 12.016 417.117 13.088 417.117 15.232V19.104C417.117 19.7867 416.781 20.128 416.109 20.128C415.448 20.128 415.117 19.7867 415.117 19.104V15.312C415.117 14.7147 415.016 14.2773 414.813 14C414.621 13.7227 414.291 13.584 413.821 13.584C413.299 13.584 412.888 13.7707 412.589 14.144C412.291 14.5067 412.141 15.0133 412.141 15.664V19.104C412.141 19.7867 411.811 20.128 411.149 20.128C410.477 20.128 410.141 19.7867 410.141 19.104V15.312C410.141 14.7147 410.04 14.2773 409.837 14C409.645 13.7227 409.32 13.584 408.861 13.584C408.339 13.584 407.928 13.7707 407.629 14.144C407.331 14.5067 407.181 15.0133 407.181 15.664V19.104C407.181 19.7867 406.845 20.128 406.173 20.128ZM380.192 40.128C379.573 40.128 379.264 39.808 379.264 39.168V29.552C379.264 28.912 379.584 28.592 380.224 28.592C380.491 28.592 380.699 28.6453 380.848 28.752C381.008 28.848 381.152 29.0187 381.28 29.264L384.976 36.096L388.672 29.264C388.8 29.0187 388.939 28.848 389.088 28.752C389.237 28.6453 389.445 28.592 389.712 28.592C390.331 28.592 390.64 28.912 390.64 29.552V39.168C390.64 39.808 390.331 40.128 389.712 40.128C389.093 40.128 388.784 39.808 388.784 39.168V32.4L385.776 37.888C385.669 38.0693 385.557 38.2027 385.44 38.288C385.323 38.3733 385.163 38.416 384.96 38.416C384.757 38.416 384.592 38.3733 384.464 38.288C384.336 38.192 384.224 38.0587 384.128 37.888L381.12 32.432V39.168C381.12 39.808 380.811 40.128 380.192 40.128ZM396.787 40.16C395.901 40.16 395.139 39.9947 394.499 39.664C393.859 39.3333 393.363 38.864 393.011 38.256C392.669 37.648 392.499 36.928 392.499 36.096C392.499 35.2853 392.664 34.576 392.995 33.968C393.336 33.36 393.8 32.8853 394.387 32.544C394.984 32.192 395.661 32.016 396.419 32.016C397.528 32.016 398.403 32.368 399.043 33.072C399.693 33.776 400.019 34.736 400.019 35.952C400.019 36.3467 399.763 36.544 399.251 36.544H394.419C394.568 37.9413 395.368 38.64 396.819 38.64C397.096 38.64 397.405 38.608 397.747 38.544C398.099 38.4693 398.429 38.3467 398.739 38.176C399.016 38.016 399.251 37.968 399.443 38.032C399.635 38.0853 399.768 38.1973 399.843 38.368C399.928 38.5387 399.939 38.7307 399.875 38.944C399.821 39.1467 399.672 39.3227 399.427 39.472C399.053 39.7067 398.621 39.8827 398.131 40C397.651 40.1067 397.203 40.16 396.787 40.16ZM396.499 33.376C395.912 33.376 395.437 33.5573 395.075 33.92C394.712 34.2827 394.493 34.7733 394.419 35.392H398.355C398.312 34.7413 398.131 34.2453 397.811 33.904C397.501 33.552 397.064 33.376 396.499 33.376ZM402.627 40.128C401.965 40.128 401.635 39.7867 401.635 39.104V33.056C401.635 32.384 401.96 32.048 402.611 32.048C403.261 32.048 403.587 32.384 403.587 33.056V33.376C403.821 32.9493 404.147 32.6187 404.562 32.384C404.979 32.1387 405.459 32.016 406.003 32.016C407.176 32.016 407.944 32.528 408.307 33.552C408.552 33.072 408.904 32.6987 409.363 32.432C409.821 32.1547 410.344 32.016 410.931 32.016C412.691 32.016 413.571 33.088 413.571 35.232V39.104C413.571 39.7867 413.235 40.128 412.563 40.128C411.901 40.128 411.571 39.7867 411.571 39.104V35.312C411.571 34.7147 411.469 34.2773 411.267 34C411.075 33.7227 410.744 33.584 410.275 33.584C409.752 33.584 409.341 33.7707 409.043 34.144C408.744 34.5067 408.595 35.0133 408.595 35.664V39.104C408.595 39.7867 408.264 40.128 407.603 40.128C406.931 40.128 406.595 39.7867 406.595 39.104V35.312C406.595 34.7147 406.493 34.2773 406.291 34C406.099 33.7227 405.773 33.584 405.315 33.584C404.792 33.584 404.381 33.7707 404.083 34.144C403.784 34.5067 403.635 35.0133 403.635 35.664V39.104C403.635 39.7867 403.299 40.128 402.627 40.128ZM420.146 40.16C419.57 40.16 419.058 40.0373 418.61 39.792C418.162 39.536 417.826 39.1947 417.602 38.768V39.104C417.602 39.7867 417.276 40.128 416.626 40.128C415.964 40.128 415.634 39.7867 415.634 39.104V29.6C415.634 28.928 415.964 28.592 416.626 28.592C417.298 28.592 417.634 28.928 417.634 29.6V33.328C417.868 32.9333 418.204 32.6187 418.642 32.384C419.09 32.1387 419.591 32.016 420.146 32.016C420.839 32.016 421.442 32.1813 421.954 32.512C422.466 32.8427 422.866 33.312 423.154 33.92C423.442 34.5173 423.586 35.2373 423.586 36.08C423.586 36.912 423.442 37.6373 423.154 38.256C422.866 38.864 422.46 39.3333 421.938 39.664C421.426 39.9947 420.828 40.16 420.146 40.16ZM419.586 38.64C420.183 38.64 420.663 38.4267 421.026 38C421.388 37.5627 421.57 36.9227 421.57 36.08C421.57 35.2267 421.388 34.592 421.026 34.176C420.663 33.7493 420.183 33.536 419.586 33.536C418.988 33.536 418.508 33.7493 418.146 34.176C417.783 34.592 417.602 35.2267 417.602 36.08C417.602 36.9227 417.783 37.5627 418.146 38C418.508 38.4267 418.988 38.64 419.586 38.64ZM429.084 40.16C428.198 40.16 427.436 39.9947 426.796 39.664C426.156 39.3333 425.66 38.864 425.308 38.256C424.966 37.648 424.796 36.928 424.796 36.096C424.796 35.2853 424.961 34.576 425.292 33.968C425.633 33.36 426.097 32.8853 426.684 32.544C427.281 32.192 427.958 32.016 428.716 32.016C429.825 32.016 430.7 32.368 431.34 33.072C431.99 33.776 432.316 34.736 432.316 35.952C432.316 36.3467 432.06 36.544 431.548 36.544H426.716C426.865 37.9413 427.665 38.64 429.116 38.64C429.393 38.64 429.702 38.608 430.044 38.544C430.396 38.4693 430.726 38.3467 431.036 38.176C431.313 38.016 431.548 37.968 431.74 38.032C431.932 38.0853 432.065 38.1973 432.14 38.368C432.225 38.5387 432.236 38.7307 432.172 38.944C432.118 39.1467 431.969 39.3227 431.724 39.472C431.35 39.7067 430.918 39.8827 430.428 40C429.948 40.1067 429.5 40.16 429.084 40.16ZM428.796 33.376C428.209 33.376 427.734 33.5573 427.372 33.92C427.009 34.2827 426.79 34.7733 426.716 35.392H430.652C430.609 34.7413 430.428 34.2453 430.108 33.904C429.798 33.552 429.361 33.376 428.796 33.376ZM434.923 40.128C434.241 40.128 433.899 39.7867 433.899 39.104V33.056C433.899 32.384 434.225 32.048 434.875 32.048C435.526 32.048 435.851 32.384 435.851 33.056V33.552C436.235 32.6347 437.057 32.1227 438.315 32.016C438.774 31.9627 439.03 32.224 439.083 32.8C439.137 33.3653 438.859 33.68 438.251 33.744L437.899 33.776C436.587 33.904 435.931 34.576 435.931 35.792V39.104C435.931 39.7867 435.595 40.128 434.923 40.128ZM442.951 40.16C442.492 40.16 442.007 40.112 441.495 40.016C440.983 39.92 440.524 39.7547 440.119 39.52C439.895 39.392 439.756 39.2373 439.703 39.056C439.65 38.864 439.655 38.688 439.719 38.528C439.794 38.3573 439.911 38.2347 440.071 38.16C440.242 38.0853 440.439 38.1013 440.663 38.208C441.09 38.4107 441.49 38.5547 441.863 38.64C442.236 38.7147 442.604 38.752 442.967 38.752C443.479 38.752 443.858 38.6667 444.103 38.496C444.359 38.3147 444.487 38.08 444.487 37.792C444.487 37.344 444.156 37.056 443.495 36.928L441.895 36.624C440.54 36.368 439.863 35.664 439.863 34.512C439.863 34 440.002 33.5573 440.279 33.184C440.567 32.8107 440.962 32.5227 441.463 32.32C441.964 32.1173 442.54 32.016 443.191 32.016C444.13 32.016 444.967 32.224 445.703 32.64C445.906 32.7467 446.023 32.896 446.055 33.088C446.098 33.2693 446.076 33.4453 445.991 33.616C445.916 33.776 445.794 33.8933 445.623 33.968C445.452 34.032 445.255 34.0107 445.031 33.904C444.7 33.7333 444.38 33.6107 444.071 33.536C443.772 33.4613 443.484 33.424 443.207 33.424C442.684 33.424 442.295 33.5147 442.039 33.696C441.794 33.8773 441.671 34.1173 441.671 34.416C441.671 34.8853 441.975 35.1733 442.583 35.28L444.183 35.584C444.876 35.712 445.399 35.9467 445.751 36.288C446.114 36.6293 446.295 37.088 446.295 37.664C446.295 38.4427 445.991 39.056 445.383 39.504C444.775 39.9413 443.964 40.16 442.951 40.16Z" fill="#212529"/>
<defs>
<linearGradient id="paint0_linear_486_3952" x1="-53.5" y1="54" x2="52.5" y2="21" gradientUnits="userSpaceOnUse">
<stop stop-color="#00730C"/>
<stop offset="1" stop-color="#F9F9F9"/>
</linearGradient>
<linearGradient id="paint1_linear_486_3952" x1="105.5" y1="54" x2="211.5" y2="21" gradientUnits="userSpaceOnUse">
<stop stop-color="#00730C"/>
<stop offset="1" stop-color="#F9F9F9"/>
</linearGradient>
<linearGradient id="paint2_linear_486_3952" x1="264.5" y1="54" x2="370.5" y2="21" gradientUnits="userSpaceOnUse">
<stop stop-color="#00730C"/>
<stop offset="1" stop-color="#F9F9F9"/>
</linearGradient>
</defs>
</svg>
